<svg width="300" height="225" viewBox="0 0 300 225" fill="none" xmlns="http://www.w3.org/2000/svg">
<rect width="300" height="225" rx="5" fill="#150095"/>
<rect x="111" y="82" width="22" height="10" fill="white"/>
<path d="M199.381 58.708H196.332V67H194.281V58.708H191.273V57.0469H199.381V58.708ZM204.241 63.3564H202.607V67H200.557V57.0469H204.255C205.431 57.0469 206.338 57.3089 206.976 57.833C207.614 58.3571 207.933 59.0977 207.933 60.0547C207.933 60.7337 207.785 61.3011 207.488 61.7568C207.197 62.208 206.752 62.568 206.155 62.8369L208.309 66.9043V67H206.107L204.241 63.3564ZM202.607 61.6953H204.262C204.777 61.6953 205.175 61.5654 205.458 61.3057C205.741 61.0413 205.882 60.679 205.882 60.2188C205.882 59.7493 205.747 59.3802 205.479 59.1113C205.214 58.8424 204.806 58.708 204.255 58.708H202.607V61.6953ZM213.21 63.5342H209.361V61.9414H213.21V63.5342ZM221.413 62.8848C221.413 64.2611 221.128 65.3138 220.559 66.043C219.989 66.7721 219.155 67.1367 218.057 67.1367C216.972 67.1367 216.143 66.779 215.568 66.0635C214.994 65.348 214.7 64.3226 214.687 62.9873V61.1553C214.687 59.7653 214.974 58.7103 215.548 57.9902C216.127 57.2702 216.958 56.9102 218.043 56.9102C219.128 56.9102 219.957 57.2679 220.531 57.9834C221.105 58.6943 221.399 59.7174 221.413 61.0527V62.8848ZM219.438 60.875C219.438 60.0501 219.324 59.4508 219.096 59.0771C218.872 58.6989 218.521 58.5098 218.043 58.5098C217.578 58.5098 217.234 58.6898 217.011 59.0498C216.792 59.4053 216.676 59.9635 216.662 60.7246V63.1445C216.662 63.9557 216.771 64.5596 216.99 64.9561C217.214 65.348 217.569 65.5439 218.057 65.5439C218.54 65.5439 218.888 65.3548 219.103 64.9766C219.317 64.5983 219.428 64.0195 219.438 63.2402V60.875ZM229.452 62.8848C229.452 64.2611 229.167 65.3138 228.598 66.043C228.028 66.7721 227.194 67.1367 226.096 67.1367C225.011 67.1367 224.182 66.779 223.607 66.0635C223.033 65.348 222.739 64.3226 222.726 62.9873V61.1553C222.726 59.7653 223.013 58.7103 223.587 57.9902C224.166 57.2702 224.997 56.9102 226.082 56.9102C227.167 56.9102 227.996 57.2679 228.57 57.9834C229.145 58.6943 229.438 59.7174 229.452 61.0527V62.8848ZM227.477 60.875C227.477 60.0501 227.363 59.4508 227.135 59.0771C226.911 58.6989 226.561 58.5098 226.082 58.5098C225.617 58.5098 225.273 58.6898 225.05 59.0498C224.831 59.4053 224.715 59.9635 224.701 60.7246V63.1445C224.701 63.9557 224.811 64.5596 225.029 64.9561C225.253 65.348 225.608 65.5439 226.096 65.5439C226.579 65.5439 226.927 65.3548 227.142 64.9766C227.356 64.5983 227.467 64.0195 227.477 63.2402V60.875ZM237.491 62.8848C237.491 64.2611 237.206 65.3138 236.637 66.043C236.067 66.7721 235.233 67.1367 234.135 67.1367C233.05 67.1367 232.221 66.779 231.646 66.0635C231.072 65.348 230.778 64.3226 230.765 62.9873V61.1553C230.765 59.7653 231.052 58.7103 231.626 57.9902C232.205 57.2702 233.036 56.9102 234.121 56.9102C235.206 56.9102 236.035 57.2679 236.609 57.9834C237.184 58.6943 237.478 59.7174 237.491 61.0527V62.8848ZM235.516 60.875C235.516 60.0501 235.402 59.4508 235.174 59.0771C234.951 58.6989 234.6 58.5098 234.121 58.5098C233.656 58.5098 233.312 58.6898 233.089 59.0498C232.87 59.4053 232.754 59.9635 232.74 60.7246V63.1445C232.74 63.9557 232.85 64.5596 233.068 64.9561C233.292 65.348 233.647 65.5439 234.135 65.5439C234.618 65.5439 234.966 65.3548 235.181 64.9766C235.395 64.5983 235.507 64.0195 235.516 63.2402V60.875ZM245.53 62.8848C245.53 64.2611 245.245 65.3138 244.676 66.043C244.106 66.7721 243.272 67.1367 242.174 67.1367C241.089 67.1367 240.26 66.779 239.686 66.0635C239.111 65.348 238.817 64.3226 238.804 62.9873V61.1553C238.804 59.7653 239.091 58.7103 239.665 57.9902C240.244 57.2702 241.076 56.9102 242.16 56.9102C243.245 56.9102 244.074 57.2679 244.648 57.9834C245.223 58.6943 245.517 59.7174 245.53 61.0527V62.8848ZM243.555 60.875C243.555 60.0501 243.441 59.4508 243.213 59.0771C242.99 58.6989 242.639 58.5098 242.16 58.5098C241.695 58.5098 241.351 58.6898 241.128 59.0498C240.909 59.4053 240.793 59.9635 240.779 60.7246V63.1445C240.779 63.9557 240.889 64.5596 241.107 64.9561C241.331 65.348 241.686 65.5439 242.174 65.5439C242.657 65.5439 243.006 65.3548 243.22 64.9766C243.434 64.5983 243.546 64.0195 243.555 63.2402V60.875ZM253.569 62.8848C253.569 64.2611 253.285 65.3138 252.715 66.043C252.145 66.7721 251.311 67.1367 250.213 67.1367C249.128 67.1367 248.299 66.779 247.725 66.0635C247.15 65.348 246.856 64.3226 246.843 62.9873V61.1553C246.843 59.7653 247.13 58.7103 247.704 57.9902C248.283 57.2702 249.115 56.9102 250.199 56.9102C251.284 56.9102 252.113 57.2679 252.688 57.9834C253.262 58.6943 253.556 59.7174 253.569 61.0527V62.8848ZM251.594 60.875C251.594 60.0501 251.48 59.4508 251.252 59.0771C251.029 58.6989 250.678 58.5098 250.199 58.5098C249.734 58.5098 249.39 58.6898 249.167 59.0498C248.948 59.4053 248.832 59.9635 248.818 60.7246V63.1445C248.818 63.9557 248.928 64.5596 249.146 64.9561C249.37 65.348 249.725 65.5439 250.213 65.5439C250.696 65.5439 251.045 65.3548 251.259 64.9766C251.473 64.5983 251.585 64.0195 251.594 63.2402V60.875ZM261.608 62.8848C261.608 64.2611 261.324 65.3138 260.754 66.043C260.184 66.7721 259.35 67.1367 258.252 67.1367C257.167 67.1367 256.338 66.779 255.764 66.0635C255.189 65.348 254.896 64.3226 254.882 62.9873V61.1553C254.882 59.7653 255.169 58.7103 255.743 57.9902C256.322 57.2702 257.154 56.9102 258.238 56.9102C259.323 56.9102 260.152 57.2679 260.727 57.9834C261.301 58.6943 261.595 59.7174 261.608 61.0527V62.8848ZM259.633 60.875C259.633 60.0501 259.519 59.4508 259.291 59.0771C259.068 58.6989 258.717 58.5098 258.238 58.5098C257.773 58.5098 257.429 58.6898 257.206 59.0498C256.987 59.4053 256.871 59.9635 256.857 60.7246V63.1445C256.857 63.9557 256.967 64.5596 257.186 64.9561C257.409 65.348 257.764 65.5439 258.252 65.5439C258.735 65.5439 259.084 65.3548 259.298 64.9766C259.512 64.5983 259.624 64.0195 259.633 63.2402V60.875ZM267.747 67H265.771V59.3848L263.413 60.1162V58.5098L267.535 57.0332H267.747V67Z" fill="white"/>
<path d="M244.216 51.6318C244.16 52.3968 243.877 52.999 243.366 53.4385C242.858 53.8779 242.188 54.0977 241.354 54.0977C240.443 54.0977 239.725 53.7917 239.201 53.1797C238.68 52.5645 238.42 51.7214 238.42 50.6504V50.2158C238.42 49.5322 238.54 48.93 238.781 48.4092C239.022 47.8883 239.366 47.4896 239.812 47.2129C240.261 46.9329 240.782 46.793 241.374 46.793C242.194 46.793 242.855 47.0127 243.356 47.4521C243.858 47.8916 244.147 48.5085 244.226 49.3027H242.761C242.725 48.8438 242.596 48.5117 242.375 48.3066C242.157 48.0983 241.823 47.9941 241.374 47.9941C240.886 47.9941 240.52 48.1699 240.275 48.5215C240.035 48.8698 239.911 49.4118 239.904 50.1475V50.6846C239.904 51.4528 240.02 52.0143 240.251 52.3691C240.485 52.724 240.853 52.9014 241.354 52.9014C241.807 52.9014 242.144 52.7988 242.365 52.5938C242.59 52.3854 242.718 52.0648 242.751 51.6318H244.216ZM246.574 54H245.158V46.5H246.574V54ZM247.521 51.3096C247.521 50.7855 247.622 50.3184 247.824 49.9082C248.026 49.498 248.316 49.1807 248.693 48.9561C249.074 48.7314 249.515 48.6191 250.017 48.6191C250.729 48.6191 251.311 48.8372 251.76 49.2734C252.212 49.7096 252.465 50.3021 252.517 51.0508L252.526 51.4121C252.526 52.2227 252.3 52.8737 251.848 53.3652C251.395 53.8535 250.788 54.0977 250.026 54.0977C249.265 54.0977 248.656 53.8535 248.2 53.3652C247.748 52.877 247.521 52.2129 247.521 51.373V51.3096ZM248.933 51.4121C248.933 51.9134 249.027 52.2975 249.216 52.5645C249.405 52.8281 249.675 52.96 250.026 52.96C250.368 52.96 250.635 52.8298 250.827 52.5693C251.019 52.3057 251.115 51.8857 251.115 51.3096C251.115 50.818 251.019 50.4372 250.827 50.167C250.635 49.8968 250.365 49.7617 250.017 49.7617C249.672 49.7617 249.405 49.8968 249.216 50.167C249.027 50.4339 248.933 50.849 248.933 51.4121ZM256.257 52.54C256.257 52.3675 256.171 52.2324 255.998 52.1348C255.829 52.0339 255.555 51.9443 255.178 51.8662C253.921 51.6025 253.293 51.0687 253.293 50.2646C253.293 49.7959 253.487 49.4053 253.874 49.0928C254.265 48.777 254.774 48.6191 255.402 48.6191C256.073 48.6191 256.608 48.777 257.009 49.0928C257.412 49.4085 257.614 49.8187 257.614 50.3232H256.203C256.203 50.1214 256.138 49.9554 256.008 49.8252C255.878 49.6917 255.674 49.625 255.397 49.625C255.16 49.625 254.976 49.6787 254.846 49.7861C254.715 49.8936 254.65 50.0303 254.65 50.1963C254.65 50.3525 254.724 50.4795 254.87 50.5771C255.02 50.6715 255.271 50.7546 255.622 50.8262C255.974 50.8945 256.27 50.9727 256.511 51.0605C257.256 51.334 257.629 51.8076 257.629 52.4814C257.629 52.9632 257.422 53.3538 257.009 53.6533C256.595 53.9495 256.062 54.0977 255.407 54.0977C254.965 54.0977 254.571 54.0195 254.226 53.8633C253.884 53.7038 253.615 53.4873 253.42 53.2139C253.225 52.9372 253.127 52.6393 253.127 52.3203H254.465C254.478 52.571 254.571 52.763 254.743 52.8965C254.916 53.0299 255.147 53.0967 255.437 53.0967C255.707 53.0967 255.91 53.0462 256.047 52.9453C256.187 52.8411 256.257 52.7061 256.257 52.54ZM260.974 54.0977C260.199 54.0977 259.567 53.86 259.079 53.3848C258.594 52.9095 258.352 52.2764 258.352 51.4854V51.3486C258.352 50.818 258.454 50.3444 258.659 49.9277C258.864 49.5078 259.154 49.1855 259.528 48.9609C259.906 48.7331 260.336 48.6191 260.817 48.6191C261.54 48.6191 262.108 48.847 262.521 49.3027C262.938 49.7585 263.146 50.4046 263.146 51.2412V51.8174H259.782C259.828 52.1624 259.965 52.4391 260.192 52.6475C260.424 52.8558 260.715 52.96 261.066 52.96C261.61 52.96 262.035 52.763 262.341 52.3691L263.034 53.1455C262.823 53.445 262.536 53.6794 262.175 53.8486C261.813 54.0146 261.413 54.0977 260.974 54.0977ZM260.812 49.7617C260.533 49.7617 260.305 49.8561 260.129 50.0449C259.956 50.2337 259.846 50.5039 259.797 50.8555H261.76V50.7432C261.753 50.4307 261.669 50.1898 261.506 50.0205C261.343 49.848 261.112 49.7617 260.812 49.7617ZM263.732 51.3193C263.732 50.4958 263.916 49.8398 264.284 49.3516C264.655 48.8633 265.161 48.6191 265.803 48.6191C266.317 48.6191 266.742 48.8112 267.077 49.1953V46.5H268.493V54H267.219L267.15 53.4385C266.799 53.8779 266.346 54.0977 265.793 54.0977C265.171 54.0977 264.672 53.8535 264.294 53.3652C263.92 52.8737 263.732 52.1917 263.732 51.3193ZM265.144 51.4219C265.144 51.9167 265.23 52.2959 265.402 52.5596C265.575 52.8232 265.826 52.9551 266.154 52.9551C266.59 52.9551 266.898 52.7712 267.077 52.4033V50.3184C266.901 49.9505 266.597 49.7666 266.164 49.7666C265.484 49.7666 265.144 50.3184 265.144 51.4219Z" fill="white"/>
<path d="M106.161 32.8428C106.017 34.8317 105.281 36.3975 103.952 37.54C102.632 38.6826 100.888 39.2539 98.7217 39.2539C96.3519 39.2539 94.4857 38.4583 93.123 36.8672C91.7689 35.2676 91.0918 33.0755 91.0918 30.291V29.1611C91.0918 27.3838 91.4049 25.818 92.0312 24.4639C92.6576 23.1097 93.5505 22.0729 94.71 21.3535C95.8779 20.6257 97.2321 20.2617 98.7725 20.2617C100.905 20.2617 102.623 20.833 103.927 21.9756C105.23 23.1182 105.983 24.722 106.187 26.7871H102.378C102.285 25.5938 101.951 24.7305 101.375 24.1973C100.808 23.6556 99.9404 23.3848 98.7725 23.3848C97.5029 23.3848 96.5508 23.8418 95.916 24.7559C95.2897 25.6615 94.9681 27.0706 94.9512 28.9834V30.3799C94.9512 32.3773 95.2516 33.8372 95.8525 34.7598C96.4619 35.6823 97.4183 36.1436 98.7217 36.1436C99.8981 36.1436 100.774 35.877 101.35 35.3438C101.934 34.8021 102.268 33.9684 102.353 32.8428H106.161ZM116.381 39C116.212 38.6699 116.089 38.2594 116.013 37.7686C115.124 38.7588 113.969 39.2539 112.547 39.2539C111.201 39.2539 110.084 38.8646 109.195 38.0859C108.315 37.3073 107.875 36.3255 107.875 35.1406C107.875 33.6849 108.412 32.5677 109.487 31.7891C110.571 31.0104 112.132 30.6169 114.172 30.6084H115.86V29.8213C115.86 29.1865 115.695 28.6787 115.365 28.2979C115.044 27.917 114.532 27.7266 113.829 27.7266C113.211 27.7266 112.725 27.8747 112.369 28.1709C112.022 28.4671 111.849 28.8734 111.849 29.3896H108.18C108.18 28.5941 108.425 27.8577 108.916 27.1807C109.407 26.5036 110.101 25.9746 110.998 25.5938C111.895 25.2044 112.902 25.0098 114.02 25.0098C115.712 25.0098 117.054 25.4372 118.044 26.292C119.043 27.1383 119.542 28.3317 119.542 29.8721V35.8262C119.55 37.1296 119.732 38.1156 120.088 38.7842V39H116.381ZM113.347 36.4482C113.888 36.4482 114.388 36.3298 114.845 36.0928C115.302 35.8473 115.64 35.5215 115.86 35.1152V32.7539H114.489C112.653 32.7539 111.675 33.3887 111.557 34.6582L111.544 34.874C111.544 35.3311 111.705 35.7077 112.026 36.0039C112.348 36.3001 112.788 36.4482 113.347 36.4482ZM129.8 35.2041C129.8 34.7555 129.576 34.4043 129.127 34.1504C128.687 33.888 127.976 33.6553 126.994 33.4521C123.727 32.7666 122.094 31.3786 122.094 29.2881C122.094 28.0693 122.597 27.0537 123.604 26.2412C124.62 25.4202 125.945 25.0098 127.578 25.0098C129.322 25.0098 130.714 25.4202 131.755 26.2412C132.804 27.0622 133.329 28.1286 133.329 29.4404H129.66C129.66 28.9157 129.491 28.484 129.152 28.1455C128.814 27.7985 128.285 27.625 127.565 27.625C126.948 27.625 126.469 27.7646 126.131 28.0439C125.792 28.3232 125.623 28.6787 125.623 29.1104C125.623 29.5166 125.813 29.8467 126.194 30.1006C126.584 30.346 127.235 30.5618 128.149 30.748C129.063 30.9258 129.834 31.1289 130.46 31.3574C132.398 32.0684 133.367 33.2998 133.367 35.0518C133.367 36.3044 132.83 37.32 131.755 38.0986C130.68 38.8688 129.292 39.2539 127.591 39.2539C126.44 39.2539 125.416 39.0508 124.519 38.6445C123.63 38.2298 122.932 37.667 122.424 36.9561C121.916 36.2367 121.662 35.4622 121.662 34.6328H125.141C125.174 35.2845 125.416 35.7839 125.864 36.1309C126.313 36.4779 126.914 36.6514 127.667 36.6514C128.369 36.6514 128.898 36.5202 129.254 36.2578C129.618 35.987 129.8 35.6357 129.8 35.2041ZM142.063 39.2539C140.049 39.2539 138.407 38.6361 137.138 37.4004C135.877 36.1647 135.246 34.5186 135.246 32.4619V32.1064C135.246 30.7269 135.513 29.4954 136.046 28.4121C136.579 27.3203 137.332 26.4824 138.306 25.8984C139.287 25.306 140.405 25.0098 141.657 25.0098C143.536 25.0098 145.013 25.6022 146.088 26.7871C147.171 27.972 147.713 29.652 147.713 31.8271V33.3252H138.966C139.084 34.2223 139.44 34.9417 140.032 35.4834C140.633 36.0251 141.391 36.2959 142.305 36.2959C143.718 36.2959 144.823 35.7839 145.618 34.7598L147.421 36.7783C146.871 37.557 146.126 38.1663 145.187 38.6064C144.247 39.0381 143.206 39.2539 142.063 39.2539ZM141.645 27.9805C140.917 27.9805 140.324 28.2259 139.867 28.7168C139.419 29.2077 139.131 29.9102 139.004 30.8242H144.107V30.5322C144.09 29.7197 143.87 29.0934 143.447 28.6533C143.024 28.2048 142.423 27.9805 141.645 27.9805ZM156.523 39V20.5156H162.211C163.836 20.5156 165.287 20.8838 166.565 21.6201C167.852 22.348 168.855 23.389 169.574 24.7432C170.294 26.0889 170.653 27.6208 170.653 29.3389V30.1895C170.653 31.9076 170.298 33.4352 169.587 34.7725C168.884 36.1097 167.89 37.1465 166.604 37.8828C165.317 38.6191 163.866 38.9915 162.249 39H156.523ZM160.332 23.6006V35.9404H162.173C163.662 35.9404 164.801 35.4538 165.588 34.4805C166.375 33.5072 166.777 32.1149 166.794 30.3037V29.3262C166.794 27.4473 166.405 26.0254 165.626 25.0605C164.847 24.0872 163.709 23.6006 162.211 23.6006H160.332ZM181.152 39C180.983 38.6699 180.86 38.2594 180.784 37.7686C179.896 38.7588 178.74 39.2539 177.318 39.2539C175.973 39.2539 174.855 38.8646 173.967 38.0859C173.087 37.3073 172.646 36.3255 172.646 35.1406C172.646 33.6849 173.184 32.5677 174.259 31.7891C175.342 31.0104 176.904 30.6169 178.943 30.6084H180.632V29.8213C180.632 29.1865 180.467 28.6787 180.137 28.2979C179.815 27.917 179.303 27.7266 178.601 27.7266C177.983 27.7266 177.496 27.8747 177.141 28.1709C176.794 28.4671 176.62 28.8734 176.62 29.3896H172.951C172.951 28.5941 173.197 27.8577 173.688 27.1807C174.178 26.5036 174.872 25.9746 175.77 25.5938C176.667 25.2044 177.674 25.0098 178.791 25.0098C180.484 25.0098 181.825 25.4372 182.815 26.292C183.814 27.1383 184.313 28.3317 184.313 29.8721V35.8262C184.322 37.1296 184.504 38.1156 184.859 38.7842V39H181.152ZM178.118 36.4482C178.66 36.4482 179.159 36.3298 179.616 36.0928C180.073 35.8473 180.412 35.5215 180.632 35.1152V32.7539H179.261C177.424 32.7539 176.447 33.3887 176.328 34.6582L176.315 34.874C176.315 35.3311 176.476 35.7077 176.798 36.0039C177.119 36.3001 177.56 36.4482 178.118 36.4482ZM191.524 21.8867V25.2637H193.873V27.9551H191.524V34.8105C191.524 35.3184 191.622 35.6823 191.816 35.9023C192.011 36.1224 192.383 36.2324 192.934 36.2324C193.34 36.2324 193.7 36.2028 194.013 36.1436V38.9238C193.293 39.1439 192.553 39.2539 191.791 39.2539C189.218 39.2539 187.906 37.9548 187.855 35.3564V27.9551H185.85V25.2637H187.855V21.8867H191.524ZM203.877 39C203.708 38.6699 203.585 38.2594 203.509 37.7686C202.62 38.7588 201.465 39.2539 200.043 39.2539C198.697 39.2539 197.58 38.8646 196.691 38.0859C195.811 37.3073 195.371 36.3255 195.371 35.1406C195.371 33.6849 195.909 32.5677 196.983 31.7891C198.067 31.0104 199.628 30.6169 201.668 30.6084H203.356V29.8213C203.356 29.1865 203.191 28.6787 202.861 28.2979C202.54 27.917 202.028 27.7266 201.325 27.7266C200.707 27.7266 200.221 27.8747 199.865 28.1709C199.518 28.4671 199.345 28.8734 199.345 29.3896H195.676C195.676 28.5941 195.921 27.8577 196.412 27.1807C196.903 26.5036 197.597 25.9746 198.494 25.5938C199.391 25.2044 200.398 25.0098 201.516 25.0098C203.208 25.0098 204.55 25.4372 205.54 26.292C206.539 27.1383 207.038 28.3317 207.038 29.8721V35.8262C207.047 37.1296 207.229 38.1156 207.584 38.7842V39H203.877ZM200.843 36.4482C201.384 36.4482 201.884 36.3298 202.341 36.0928C202.798 35.8473 203.136 35.5215 203.356 35.1152V32.7539H201.985C200.149 32.7539 199.171 33.3887 199.053 34.6582L199.04 34.874C199.04 35.3311 199.201 35.7077 199.522 36.0039C199.844 36.3001 200.284 36.4482 200.843 36.4482Z" fill="#FAFF00"/>
<path d="M31.1426 58V45.2031H35.0801C36.2051 45.2031 37.21 45.458 38.0947 45.9678C38.9854 46.4717 39.6797 47.1924 40.1777 48.1299C40.6758 49.0615 40.9248 50.1221 40.9248 51.3115V51.9004C40.9248 53.0898 40.6787 54.1475 40.1865 55.0732C39.7002 55.999 39.0117 56.7168 38.1211 57.2266C37.2305 57.7363 36.2256 57.9941 35.1064 58H31.1426ZM33.7793 47.3389V55.8818H35.0537C36.085 55.8818 36.873 55.5449 37.418 54.8711C37.9629 54.1973 38.2412 53.2334 38.2529 51.9795V51.3027C38.2529 50.002 37.9834 49.0176 37.4443 48.3496C36.9053 47.6758 36.1172 47.3389 35.0801 47.3389H33.7793ZM42.2871 53.1572C42.2871 52.2139 42.4688 51.373 42.832 50.6348C43.1953 49.8965 43.7168 49.3252 44.3965 48.9209C45.082 48.5166 45.876 48.3145 46.7783 48.3145C48.0615 48.3145 49.1074 48.707 49.916 49.4922C50.7305 50.2773 51.1846 51.3438 51.2783 52.6914L51.2959 53.3418C51.2959 54.8008 50.8887 55.9727 50.0742 56.8574C49.2598 57.7363 48.167 58.1758 46.7959 58.1758C45.4248 58.1758 44.3291 57.7363 43.5088 56.8574C42.6943 55.9785 42.2871 54.7832 42.2871 53.2715V53.1572ZM44.8271 53.3418C44.8271 54.2441 44.9971 54.9355 45.3369 55.416C45.6768 55.8906 46.1631 56.1279 46.7959 56.1279C47.4111 56.1279 47.8916 55.8936 48.2373 55.4248C48.583 54.9502 48.7559 54.1943 48.7559 53.1572C48.7559 52.2725 48.583 51.5869 48.2373 51.1006C47.8916 50.6143 47.4053 50.3711 46.7783 50.3711C46.1572 50.3711 45.6768 50.6143 45.3369 51.1006C44.9971 51.5811 44.8271 52.3281 44.8271 53.3418ZM57.2373 58.1758C55.8428 58.1758 54.7061 57.748 53.8271 56.8926C52.9541 56.0371 52.5176 54.8975 52.5176 53.4736V53.2275C52.5176 52.2725 52.7021 51.4199 53.0713 50.6699C53.4404 49.9141 53.9619 49.334 54.6357 48.9297C55.3154 48.5195 56.0889 48.3145 56.9561 48.3145C58.2568 48.3145 59.2793 48.7246 60.0234 49.5449C60.7734 50.3652 61.1484 51.5283 61.1484 53.0342V54.0713H55.0928C55.1748 54.6924 55.4209 55.1904 55.8311 55.5654C56.2471 55.9404 56.7715 56.1279 57.4043 56.1279C58.3828 56.1279 59.1475 55.7734 59.6982 55.0645L60.9463 56.4619C60.5654 57.001 60.0498 57.4229 59.3994 57.7275C58.749 58.0264 58.0283 58.1758 57.2373 58.1758ZM56.9473 50.3711C56.4434 50.3711 56.0332 50.541 55.7168 50.8809C55.4062 51.2207 55.207 51.707 55.1191 52.3398H58.6523V52.1377C58.6406 51.5752 58.4883 51.1416 58.1953 50.8369C57.9023 50.5264 57.4863 50.3711 56.9473 50.3711ZM63.2578 61.208L61.9307 60.5137L62.2471 59.9424C62.6396 59.2275 62.8418 58.5156 62.8535 57.8066V55.8379H64.998L64.9893 57.5957C64.9834 58.2461 64.8193 58.9023 64.4971 59.5645C64.1748 60.2266 63.7617 60.7744 63.2578 61.208ZM76.8018 45.2031H79.4385V54.0625C79.4385 54.877 79.2568 55.5977 78.8936 56.2246C78.5361 56.8457 78.0293 57.3262 77.373 57.666C76.7168 58.0059 75.9756 58.1758 75.1494 58.1758C73.7959 58.1758 72.7412 57.833 71.9854 57.1475C71.2295 56.4561 70.8516 55.4805 70.8516 54.2207H73.5059C73.5059 54.8477 73.6377 55.3105 73.9014 55.6094C74.165 55.9082 74.5811 56.0576 75.1494 56.0576C75.6533 56.0576 76.0547 55.8848 76.3535 55.5391C76.6523 55.1934 76.8018 54.7012 76.8018 54.0625V45.2031ZM81.1348 53.1572C81.1348 52.2139 81.3164 51.373 81.6797 50.6348C82.043 49.8965 82.5645 49.3252 83.2441 48.9209C83.9297 48.5166 84.7236 48.3145 85.626 48.3145C86.9092 48.3145 87.9551 48.707 88.7637 49.4922C89.5781 50.2773 90.0322 51.3438 90.126 52.6914L90.1436 53.3418C90.1436 54.8008 89.7363 55.9727 88.9219 56.8574C88.1074 57.7363 87.0146 58.1758 85.6436 58.1758C84.2725 58.1758 83.1768 57.7363 82.3564 56.8574C81.542 55.9785 81.1348 54.7832 81.1348 53.2715V53.1572ZM83.6748 53.3418C83.6748 54.2441 83.8447 54.9355 84.1846 55.416C84.5244 55.8906 85.0107 56.1279 85.6436 56.1279C86.2588 56.1279 86.7393 55.8936 87.085 55.4248C87.4307 54.9502 87.6035 54.1943 87.6035 53.1572C87.6035 52.2725 87.4307 51.5869 87.085 51.1006C86.7393 50.6143 86.2529 50.3711 85.626 50.3711C85.0049 50.3711 84.5244 50.6143 84.1846 51.1006C83.8447 51.5811 83.6748 52.3281 83.6748 53.3418ZM94.1865 49.5273C94.8604 48.7188 95.707 48.3145 96.7266 48.3145C98.7891 48.3145 99.835 49.5127 99.8643 51.9092V58H97.3242V51.9795C97.3242 51.4346 97.207 51.0332 96.9727 50.7754C96.7383 50.5117 96.3486 50.3799 95.8037 50.3799C95.0596 50.3799 94.5205 50.667 94.1865 51.2412V58H91.6465V44.5H94.1865V49.5273ZM104.118 48.4902L104.197 49.5889C104.877 48.7393 105.788 48.3145 106.931 48.3145C107.938 48.3145 108.688 48.6104 109.181 49.2021C109.673 49.7939 109.925 50.6787 109.937 51.8564V58H107.396V51.918C107.396 51.3789 107.279 50.9893 107.045 50.749C106.811 50.5029 106.421 50.3799 105.876 50.3799C105.161 50.3799 104.625 50.6846 104.268 51.2939V58H101.728V48.4902H104.118Z" fill="white"/>
<rect x="220" y="75" width="50" height="65" fill="white"/>
<path d="M237.624 113.5C233.225 113.5 229.47 116.681 228.747 121.02L225.823 138.561C225.743 139.041 225.703 139.522 225.701 140H264.179C264.162 139.516 264.106 139.031 264.009 138.547L260.447 120.735C259.606 116.528 255.912 113.5 251.622 113.5H237.624Z" fill="#FAC173"/>
<path d="M258 100C254 116.5 244.5 116.5 244.5 116.5C244.5 116.5 235 116.5 231 100C231 90.0589 237.044 85.5 244.5 85.5C251.956 85.5 258 90.0589 258 100Z" fill="#FDE4C6"/>
<rect x="30" y="82" width="63" height="10" fill="white"/>
<rect x="150" y="82" width="41" height="10" fill="white"/>
<rect x="30" y="103" width="41" height="10" fill="white"/>
<rect x="84" y="103" width="49" height="10" fill="white"/>
<rect x="142" y="103" width="58" height="10" fill="white"/>
<rect x="111" y="167" width="22" height="10" fill="white"/>
<rect x="30" y="167" width="63" height="10" fill="white"/>
<rect x="150" y="167" width="41" height="10" fill="white"/>
<rect x="30" y="188" width="41" height="10" fill="white"/>
<rect x="84" y="188" width="49" height="10" fill="white"/>
<rect x="142" y="188" width="58" height="10" fill="white"/>
<rect x="30" y="124" width="16" height="10" fill="white"/>
<rect x="55" y="124" width="16" height="10" fill="white"/>
<rect x="80" y="124" width="16" height="10" fill="white"/>
<rect x="106" y="124" width="16" height="10" fill="white"/>
<rect x="130" y="124" width="16" height="10" fill="white"/>
<line x1="30" y1="151.5" x2="209" y2="151.5" stroke="#FAFF00" stroke-width="3"/>
<path d="M94.6484 69.5352H92.0801L91.5918 71H90.0342L92.6807 63.8906H94.0381L96.6992 71H95.1416L94.6484 69.5352ZM92.4756 68.3486H94.2529L93.3594 65.6875L92.4756 68.3486ZM97.0654 68.3193C97.0654 67.5088 97.2575 66.8561 97.6416 66.3613C98.029 65.8665 98.5498 65.6191 99.2041 65.6191C99.7835 65.6191 100.234 65.8177 100.557 66.2148L100.615 65.7168H101.895V70.8242C101.895 71.2865 101.789 71.6885 101.577 72.0303C101.369 72.3721 101.074 72.6325 100.693 72.8115C100.312 72.9906 99.8665 73.0801 99.3555 73.0801C98.9681 73.0801 98.5905 73.002 98.2227 72.8457C97.8548 72.6927 97.5765 72.4941 97.3877 72.25L98.0127 71.3906C98.3643 71.7845 98.7907 71.9814 99.292 71.9814C99.6663 71.9814 99.9577 71.8805 100.166 71.6787C100.374 71.4801 100.479 71.1969 100.479 70.8291V70.5459C100.153 70.9137 99.7249 71.0977 99.1943 71.0977C98.5596 71.0977 98.0452 70.8503 97.6514 70.3555C97.2607 69.8574 97.0654 69.1982 97.0654 68.3779V68.3193ZM98.4766 68.4219C98.4766 68.9004 98.5726 69.2764 98.7646 69.5498C98.9567 69.82 99.2204 69.9551 99.5557 69.9551C99.9854 69.9551 100.293 69.7939 100.479 69.4717V67.25C100.29 66.9277 99.9854 66.7666 99.5654 66.7666C99.2269 66.7666 98.96 66.9049 98.7646 67.1816C98.5726 67.4583 98.4766 67.8717 98.4766 68.4219ZM105.415 71.0977C104.64 71.0977 104.009 70.86 103.521 70.3848C103.035 69.9095 102.793 69.2764 102.793 68.4854V68.3486C102.793 67.818 102.896 67.3444 103.101 66.9277C103.306 66.5078 103.595 66.1855 103.97 65.9609C104.347 65.7331 104.777 65.6191 105.259 65.6191C105.981 65.6191 106.549 65.847 106.963 66.3027C107.38 66.7585 107.588 67.4046 107.588 68.2412V68.8174H104.224C104.269 69.1624 104.406 69.4391 104.634 69.6475C104.865 69.8558 105.156 69.96 105.508 69.96C106.051 69.96 106.476 69.763 106.782 69.3691L107.476 70.1455C107.264 70.445 106.978 70.6794 106.616 70.8486C106.255 71.0146 105.854 71.0977 105.415 71.0977ZM105.254 66.7617C104.974 66.7617 104.746 66.8561 104.57 67.0449C104.398 67.2337 104.287 67.5039 104.238 67.8555H106.201V67.7432C106.195 67.4307 106.11 67.1898 105.947 67.0205C105.785 66.848 105.553 66.7617 105.254 66.7617ZM108.462 70.3066C108.462 70.082 108.537 69.8997 108.687 69.7598C108.84 69.6198 109.03 69.5498 109.258 69.5498C109.489 69.5498 109.679 69.6198 109.829 69.7598C109.982 69.8997 110.059 70.082 110.059 70.3066C110.059 70.528 109.984 70.7087 109.834 70.8486C109.684 70.9854 109.492 71.0537 109.258 71.0537C109.027 71.0537 108.836 70.9854 108.687 70.8486C108.537 70.7087 108.462 70.528 108.462 70.3066ZM108.462 66.3076C108.462 66.083 108.537 65.9007 108.687 65.7607C108.84 65.6208 109.03 65.5508 109.258 65.5508C109.489 65.5508 109.679 65.6208 109.829 65.7607C109.982 65.9007 110.059 66.083 110.059 66.3076C110.059 66.529 109.984 66.7096 109.834 66.8496C109.684 66.9863 109.492 67.0547 109.258 67.0547C109.027 67.0547 108.836 66.9863 108.687 66.8496C108.537 66.7096 108.462 66.529 108.462 66.3076ZM115.083 66.8203H115.835C116.193 66.8203 116.458 66.7308 116.631 66.5518C116.803 66.3727 116.89 66.1351 116.89 65.8389C116.89 65.5524 116.803 65.3294 116.631 65.1699C116.462 65.0104 116.227 64.9307 115.928 64.9307C115.658 64.9307 115.431 65.0055 115.249 65.1553C115.067 65.3018 114.976 65.4938 114.976 65.7314H113.564C113.564 65.3604 113.664 65.0283 113.862 64.7354C114.064 64.4391 114.344 64.208 114.702 64.042C115.063 63.876 115.461 63.793 115.894 63.793C116.646 63.793 117.235 63.9736 117.661 64.335C118.088 64.693 118.301 65.1878 118.301 65.8193C118.301 66.1449 118.201 66.4443 118.003 66.7178C117.804 66.9912 117.544 67.2012 117.222 67.3477C117.622 67.4909 117.92 67.7057 118.115 67.9922C118.314 68.2786 118.413 68.6172 118.413 69.0078C118.413 69.6393 118.182 70.1455 117.72 70.5264C117.261 70.9072 116.652 71.0977 115.894 71.0977C115.184 71.0977 114.603 70.9105 114.15 70.5361C113.701 70.1618 113.477 69.667 113.477 69.0518H114.888C114.888 69.3187 114.987 69.5368 115.186 69.7061C115.387 69.8753 115.635 69.96 115.928 69.96C116.263 69.96 116.525 69.8721 116.714 69.6963C116.906 69.5173 117.002 69.2812 117.002 68.9883C117.002 68.2786 116.611 67.9238 115.83 67.9238H115.083V66.8203ZM124.175 68.0605C124.175 69.0436 123.971 69.7956 123.564 70.3164C123.158 70.8372 122.562 71.0977 121.777 71.0977C121.003 71.0977 120.41 70.8421 120 70.3311C119.59 69.82 119.38 69.0876 119.37 68.1338V66.8252C119.37 65.8324 119.575 65.0788 119.985 64.5645C120.399 64.0501 120.993 63.793 121.768 63.793C122.542 63.793 123.135 64.0485 123.545 64.5596C123.955 65.0674 124.165 65.7982 124.175 66.752V68.0605ZM122.764 66.625C122.764 66.0358 122.682 65.6077 122.52 65.3408C122.36 65.0706 122.109 64.9355 121.768 64.9355C121.436 64.9355 121.19 65.0641 121.03 65.3213C120.874 65.5752 120.791 65.974 120.781 66.5176V68.2461C120.781 68.8255 120.859 69.2568 121.016 69.54C121.175 69.82 121.429 69.96 121.777 69.96C122.122 69.96 122.371 69.8249 122.524 69.5547C122.677 69.2845 122.757 68.8711 122.764 68.3145V66.625Z" fill="white"/>
<path d="M35.2686 68.0605C35.2686 69.0436 35.0651 69.7956 34.6582 70.3164C34.2513 70.8372 33.6556 71.0977 32.8711 71.0977C32.0964 71.0977 31.5039 70.8421 31.0938 70.3311C30.6836 69.82 30.4736 69.0876 30.4639 68.1338V66.8252C30.4639 65.8324 30.6689 65.0788 31.0791 64.5645C31.4925 64.0501 32.0866 63.793 32.8613 63.793C33.6361 63.793 34.2285 64.0485 34.6387 64.5596C35.0488 65.0674 35.2588 65.7982 35.2686 66.752V68.0605ZM33.8574 66.625C33.8574 66.0358 33.776 65.6077 33.6133 65.3408C33.4538 65.0706 33.2031 64.9355 32.8613 64.9355C32.5293 64.9355 32.2835 65.0641 32.124 65.3213C31.9678 65.5752 31.8848 65.974 31.875 66.5176V68.2461C31.875 68.8255 31.9531 69.2568 32.1094 69.54C32.2689 69.82 32.5228 69.96 32.8711 69.96C33.2161 69.96 33.4652 69.8249 33.6182 69.5547C33.7712 69.2845 33.8509 68.8711 33.8574 68.3145V66.625ZM41.0107 68.0605C41.0107 69.0436 40.8073 69.7956 40.4004 70.3164C39.9935 70.8372 39.3978 71.0977 38.6133 71.0977C37.8385 71.0977 37.2461 70.8421 36.8359 70.3311C36.4258 69.82 36.2158 69.0876 36.2061 68.1338V66.8252C36.2061 65.8324 36.4111 65.0788 36.8213 64.5645C37.2347 64.0501 37.8288 63.793 38.6035 63.793C39.3783 63.793 39.9707 64.0485 40.3809 64.5596C40.791 65.0674 41.001 65.7982 41.0107 66.752V68.0605ZM39.5996 66.625C39.5996 66.0358 39.5182 65.6077 39.3555 65.3408C39.196 65.0706 38.9453 64.9355 38.6035 64.9355C38.2715 64.9355 38.0257 65.0641 37.8662 65.3213C37.71 65.5752 37.627 65.974 37.6172 66.5176V68.2461C37.6172 68.8255 37.6953 69.2568 37.8516 69.54C38.0111 69.82 38.265 69.96 38.6133 69.96C38.9583 69.96 39.2074 69.8249 39.3604 69.5547C39.5133 69.2845 39.5931 68.8711 39.5996 68.3145V66.625ZM46.7529 68.0605C46.7529 69.0436 46.5495 69.7956 46.1426 70.3164C45.7357 70.8372 45.14 71.0977 44.3555 71.0977C43.5807 71.0977 42.9883 70.8421 42.5781 70.3311C42.168 69.82 41.958 69.0876 41.9482 68.1338V66.8252C41.9482 65.8324 42.1533 65.0788 42.5635 64.5645C42.9769 64.0501 43.571 63.793 44.3457 63.793C45.1204 63.793 45.7129 64.0485 46.123 64.5596C46.5332 65.0674 46.7432 65.7982 46.7529 66.752V68.0605ZM45.3418 66.625C45.3418 66.0358 45.2604 65.6077 45.0977 65.3408C44.9382 65.0706 44.6875 64.9355 44.3457 64.9355C44.0137 64.9355 43.7679 65.0641 43.6084 65.3213C43.4521 65.5752 43.3691 65.974 43.3594 66.5176V68.2461C43.3594 68.8255 43.4375 69.2568 43.5938 69.54C43.7533 69.82 44.0072 69.96 44.3555 69.96C44.7005 69.96 44.9495 69.8249 45.1025 69.5547C45.2555 69.2845 45.3353 68.8711 45.3418 68.3145V66.625ZM52.4951 68.0605C52.4951 69.0436 52.2917 69.7956 51.8848 70.3164C51.4779 70.8372 50.8822 71.0977 50.0977 71.0977C49.3229 71.0977 48.7305 70.8421 48.3203 70.3311C47.9102 69.82 47.7002 69.0876 47.6904 68.1338V66.8252C47.6904 65.8324 47.8955 65.0788 48.3057 64.5645C48.7191 64.0501 49.3132 63.793 50.0879 63.793C50.8626 63.793 51.4551 64.0485 51.8652 64.5596C52.2754 65.0674 52.4854 65.7982 52.4951 66.752V68.0605ZM51.084 66.625C51.084 66.0358 51.0026 65.6077 50.8398 65.3408C50.6803 65.0706 50.4297 64.9355 50.0879 64.9355C49.7559 64.9355 49.5101 65.0641 49.3506 65.3213C49.1943 65.5752 49.1113 65.974 49.1016 66.5176V68.2461C49.1016 68.8255 49.1797 69.2568 49.3359 69.54C49.4954 69.82 49.7493 69.96 50.0977 69.96C50.4427 69.96 50.6917 69.8249 50.8447 69.5547C50.9977 69.2845 51.0775 68.8711 51.084 68.3145V66.625ZM58.2373 68.0605C58.2373 69.0436 58.0339 69.7956 57.627 70.3164C57.2201 70.8372 56.6243 71.0977 55.8398 71.0977C55.0651 71.0977 54.4727 70.8421 54.0625 70.3311C53.6523 69.82 53.4424 69.0876 53.4326 68.1338V66.8252C53.4326 65.8324 53.6377 65.0788 54.0479 64.5645C54.4613 64.0501 55.0553 63.793 55.8301 63.793C56.6048 63.793 57.1973 64.0485 57.6074 64.5596C58.0176 65.0674 58.2275 65.7982 58.2373 66.752V68.0605ZM56.8262 66.625C56.8262 66.0358 56.7448 65.6077 56.582 65.3408C56.4225 65.0706 56.1719 64.9355 55.8301 64.9355C55.498 64.9355 55.2523 65.0641 55.0928 65.3213C54.9365 65.5752 54.8535 65.974 54.8438 66.5176V68.2461C54.8438 68.8255 54.9219 69.2568 55.0781 69.54C55.2376 69.82 55.4915 69.96 55.8398 69.96C56.1849 69.96 56.4339 69.8249 56.5869 69.5547C56.7399 69.2845 56.8197 68.8711 56.8262 68.3145V66.625ZM62.6221 71H61.2109V65.5605L59.5264 66.083V64.9355L62.4707 63.8809H62.6221V71Z" fill="white"/>
</svg>
