<?xml version="1.0" encoding="UTF-8" standalone="no"?><!DOCTYPE svg PUBLIC "-//W3C//DTD SVG 1.1//EN" "http://www.w3.org/Graphics/SVG/1.1/DTD/svg11.dtd"><svg width="100%" height="100%" viewBox="0 0 959 913" version="1.1" xmlns="http://www.w3.org/2000/svg" xmlns:xlink="http://www.w3.org/1999/xlink" xml:space="preserve" xmlns:serif="http://www.serif.com/" style="fill-rule:evenodd;clip-rule:evenodd;stroke-linejoin:round;stroke-miterlimit:2;"><g><clipPath id="_clip1"><rect x="-0" y="1.346" width="958.333" height="911.154"/></clipPath><g clip-path="url(#_clip1)"><path id="M-Rounded-More" serif:id="M Rounded More" d="M320.833,912.449l-168.75,0c0,0 0,16.701 0,-556.216c0,-66.534 163.542,-84.234 327.084,-84.247c163.541,-0.012 327.083,15.58 327.083,84.247l0,556.216l-168.75,0l0,-427.899c-1.015,-22.436 -47.465,-22.066 -69.792,-20.93l0,448.829l-177.083,0l0,-448.88c-22.327,-1.136 -68.777,-1.506 -69.792,20.93l0,427.95Z" style="fill:#1f2457;"/><path d="M958.333,88.611c-0.252,-52.607 -239.709,-87.251 -479.166,-87.265c-239.584,-0.014 -479.167,34.63 -479.167,87.265c0,0 58.741,165.449 152.083,139.703c170.032,-46.899 484.135,-47.196 654.167,-0.069c93.275,25.852 152.083,-139.634 152.083,-139.634Z" style="fill:#fac173;"/></g></g></svg>