<?xml version="1.0" encoding="UTF-8" standalone="no"?>
<!DOCTYPE svg PUBLIC "-//W3C//DTD SVG 1.1//EN" "http://www.w3.org/Graphics/SVG/1.1/DTD/svg11.dtd">
<svg width="100%" height="100%" viewBox="0 0 700 200" version="1.1" xmlns="http://www.w3.org/2000/svg" xmlns:xlink="http://www.w3.org/1999/xlink" xml:space="preserve" xmlns:serif="http://www.serif.com/" style="fill-rule:evenodd;clip-rule:evenodd;stroke-linejoin:round;stroke-miterlimit:2;">
    <g transform="matrix(0.849814,0,0,0.849814,-459.023,-104.643)">
        <g transform="matrix(1.11364,0,0,1.11364,-83.7046,-564.398)">
            <g transform="matrix(1.50667,0,0,0.559842,-431.333,342.91)">
                <g transform="matrix(63.7168,0,0,171.477,800,758.564)">
                    <path d="M0.388,-0L0.242,-0.514L0.238,-0.514C0.245,-0.427 0.248,-0.359 0.248,-0.31L0.248,-0L0.077,-0L0.077,-0.714L0.334,-0.714L0.483,-0.207L0.487,-0.207L0.633,-0.714L0.89,-0.714L0.89,-0L0.713,-0L0.713,-0.313C0.713,-0.329 0.713,-0.347 0.714,-0.367C0.714,-0.387 0.716,-0.436 0.72,-0.513L0.716,-0.513L0.572,-0L0.388,-0Z" style="fill:rgb(31,36,87);fill-rule:nonzero;"/>
                </g>
                <g transform="matrix(63.7168,0,0,171.477,858.415,758.564)">
                    <path d="M0.684,-0.714L0.684,-0.284C0.684,-0.191 0.658,-0.118 0.605,-0.067C0.552,-0.016 0.476,0.01 0.376,0.01C0.279,0.01 0.204,-0.015 0.152,-0.065C0.099,-0.115 0.073,-0.186 0.073,-0.28L0.073,-0.714L0.267,-0.714L0.267,-0.295C0.267,-0.244 0.277,-0.208 0.295,-0.185C0.314,-0.162 0.342,-0.151 0.379,-0.151C0.418,-0.151 0.447,-0.162 0.465,-0.185C0.482,-0.207 0.491,-0.244 0.491,-0.296L0.491,-0.714L0.684,-0.714Z" style="fill:rgb(31,36,87);fill-rule:nonzero;"/>
                </g>
                <g transform="matrix(63.7168,0,0,171.477,903.453,758.564)">
                    <path d="M0.757,-0L0.504,-0L0.243,-0.503L0.239,-0.503C0.245,-0.424 0.248,-0.363 0.248,-0.322L0.248,-0L0.077,-0L0.077,-0.714L0.329,-0.714L0.589,-0.218L0.592,-0.218C0.587,-0.29 0.585,-0.347 0.585,-0.391L0.585,-0.714L0.757,-0.714L0.757,-0Z" style="fill:rgb(31,36,87);fill-rule:nonzero;"/>
                </g>
                <g transform="matrix(63.7168,0,0,171.477,953.406,758.564)">
                    <rect x="0.077" y="-0.714" width="0.194" height="0.714" style="fill:rgb(31,36,87);fill-rule:nonzero;"/>
                </g>
                <g transform="matrix(63.7168,0,0,171.477,972.403,758.564)">
                    <path d="M0.395,-0.566C0.349,-0.566 0.313,-0.547 0.288,-0.51C0.262,-0.472 0.249,-0.42 0.249,-0.354C0.249,-0.217 0.301,-0.148 0.406,-0.148C0.437,-0.148 0.468,-0.152 0.498,-0.161C0.527,-0.17 0.557,-0.181 0.587,-0.193L0.587,-0.03C0.527,-0.003 0.46,0.01 0.385,0.01C0.277,0.01 0.194,-0.021 0.137,-0.084C0.08,-0.146 0.051,-0.237 0.051,-0.355C0.051,-0.429 0.065,-0.494 0.093,-0.55C0.12,-0.606 0.16,-0.649 0.213,-0.679C0.265,-0.709 0.326,-0.724 0.397,-0.724C0.474,-0.724 0.548,-0.707 0.618,-0.674L0.559,-0.522C0.533,-0.534 0.506,-0.545 0.48,-0.553C0.454,-0.562 0.425,-0.566 0.395,-0.566Z" style="fill:rgb(31,36,87);fill-rule:nonzero;"/>
                </g>
                <g transform="matrix(63.7168,0,0,171.477,1010.56,758.564)">
                    <rect x="0.077" y="-0.714" width="0.194" height="0.714" style="fill:rgb(31,36,87);fill-rule:nonzero;"/>
                </g>
                <g transform="matrix(63.7168,0,0,171.477,1029.56,758.564)">
                    <path d="M0.595,-0.487C0.595,-0.407 0.572,-0.345 0.525,-0.302C0.478,-0.259 0.411,-0.237 0.324,-0.237L0.27,-0.237L0.27,-0L0.077,-0L0.077,-0.714L0.324,-0.714C0.414,-0.714 0.482,-0.694 0.527,-0.655C0.573,-0.615 0.595,-0.559 0.595,-0.487ZM0.27,-0.394L0.305,-0.394C0.334,-0.394 0.357,-0.402 0.374,-0.418C0.391,-0.435 0.4,-0.457 0.4,-0.486C0.4,-0.534 0.373,-0.558 0.32,-0.558L0.27,-0.558L0.27,-0.394Z" style="fill:rgb(31,36,87);fill-rule:nonzero;"/>
                </g>
                <g transform="matrix(63.7168,0,0,171.477,1064.34,758.062)">
                    <path d="M0.515,-0L0.48,-0.134L0.248,-0.134L0.212,-0L0,-0L0.233,-0.717L0.49,-0.717L0.726,-0L0.515,-0ZM0.44,-0.292L0.409,-0.409C0.402,-0.435 0.393,-0.469 0.383,-0.51C0.373,-0.552 0.366,-0.581 0.363,-0.599C0.36,-0.583 0.354,-0.555 0.345,-0.517C0.337,-0.479 0.318,-0.404 0.288,-0.292L0.44,-0.292Z" style="fill:rgb(31,36,87);fill-rule:nonzero;"/>
                </g>
                <g transform="matrix(63.7168,0,0,171.477,1108.12,758.062)">
                    <path d="M0.077,-0L0.077,-0.714L0.27,-0.714L0.27,-0.156L0.545,-0.156L0.545,-0L0.077,-0Z" style="fill:rgb(31,36,87);fill-rule:nonzero;"/>
                </g>
            </g>
            <g transform="matrix(1.43401,0,0,0.410016,-368.208,486.372)">
                <g transform="matrix(41.1434,0,0,143.897,800,821.519)">
                    <path d="M0.544,-0.217C0.544,-0.173 0.533,-0.133 0.51,-0.099C0.488,-0.065 0.455,-0.038 0.413,-0.019C0.371,0 0.321,0.01 0.264,0.01C0.217,0.01 0.177,0.006 0.145,-0C0.112,-0.007 0.079,-0.019 0.044,-0.035L0.044,-0.207C0.081,-0.188 0.119,-0.173 0.159,-0.163C0.198,-0.152 0.235,-0.147 0.268,-0.147C0.297,-0.147 0.318,-0.152 0.331,-0.162C0.344,-0.172 0.351,-0.185 0.351,-0.2C0.351,-0.21 0.348,-0.219 0.343,-0.226C0.338,-0.233 0.329,-0.241 0.317,-0.248C0.305,-0.256 0.274,-0.271 0.222,-0.294C0.176,-0.315 0.141,-0.336 0.117,-0.355C0.094,-0.375 0.077,-0.398 0.066,-0.424C0.054,-0.45 0.049,-0.48 0.049,-0.515C0.049,-0.581 0.073,-0.632 0.121,-0.669C0.168,-0.706 0.234,-0.724 0.318,-0.724C0.392,-0.724 0.467,-0.707 0.544,-0.673L0.485,-0.524C0.418,-0.555 0.361,-0.57 0.312,-0.57C0.287,-0.57 0.269,-0.565 0.257,-0.557C0.246,-0.548 0.24,-0.537 0.24,-0.524C0.24,-0.51 0.247,-0.497 0.262,-0.486C0.276,-0.475 0.316,-0.455 0.38,-0.426C0.441,-0.398 0.484,-0.368 0.508,-0.337C0.532,-0.305 0.544,-0.265 0.544,-0.217Z" style="fill:rgb(31,36,87);fill-rule:nonzero;"/>
                </g>
                <g transform="matrix(41.1434,0,0,143.897,821.689,821.519)">
                    <path d="M0.745,-0.358C0.745,-0.238 0.716,-0.146 0.657,-0.084C0.598,-0.021 0.512,0.01 0.398,0.01C0.286,0.01 0.2,-0.022 0.14,-0.084C0.081,-0.147 0.051,-0.239 0.051,-0.359C0.051,-0.478 0.08,-0.568 0.14,-0.631C0.199,-0.694 0.286,-0.725 0.399,-0.725C0.513,-0.725 0.599,-0.694 0.657,-0.632C0.716,-0.57 0.745,-0.478 0.745,-0.358ZM0.254,-0.358C0.254,-0.22 0.302,-0.151 0.398,-0.151C0.447,-0.151 0.483,-0.168 0.507,-0.201C0.53,-0.235 0.542,-0.287 0.542,-0.358C0.542,-0.429 0.53,-0.482 0.506,-0.516C0.482,-0.55 0.446,-0.567 0.399,-0.567C0.302,-0.567 0.254,-0.497 0.254,-0.358Z" style="fill:rgb(31,36,87);fill-rule:nonzero;"/>
                </g>
                <g transform="matrix(41.1434,0,0,143.897,851.681,821.519)">
                    <path d="M0.267,-0L0.077,-0L0.077,-0.714L0.499,-0.714L0.499,-0.559L0.267,-0.559L0.267,-0.423L0.481,-0.423L0.481,-0.268L0.267,-0.268L0.267,-0Z" style="fill:rgb(31,36,87);fill-rule:nonzero;"/>
                </g>
                <g transform="matrix(41.1434,0,0,143.897,872.539,821.519)">
                    <path d="M0.392,-0L0.199,-0L0.199,-0.556L0.025,-0.556L0.025,-0.714L0.566,-0.714L0.566,-0.556L0.392,-0.556L0.392,-0Z" style="fill:rgb(31,36,87);fill-rule:nonzero;"/>
                </g>
                <g transform="matrix(41.1434,0,0,143.897,896.552,822.221)">
                    <path d="M0.848,-0L0.62,-0L0.552,-0.311C0.549,-0.324 0.543,-0.35 0.536,-0.389C0.529,-0.427 0.524,-0.46 0.521,-0.486C0.518,-0.465 0.514,-0.438 0.508,-0.407C0.502,-0.376 0.497,-0.347 0.491,-0.32C0.485,-0.294 0.462,-0.187 0.42,-0L0.192,-0L0.015,-0.714L0.201,-0.714L0.279,-0.356C0.296,-0.277 0.308,-0.214 0.315,-0.167C0.319,-0.2 0.327,-0.245 0.338,-0.302C0.349,-0.359 0.359,-0.406 0.368,-0.444L0.431,-0.714L0.61,-0.714L0.671,-0.444C0.681,-0.401 0.692,-0.351 0.703,-0.294C0.713,-0.237 0.721,-0.195 0.724,-0.167C0.728,-0.203 0.74,-0.266 0.759,-0.355L0.838,-0.714L1.024,-0.714L0.848,-0Z" style="fill:rgb(31,36,87);fill-rule:nonzero;"/>
                </g>
                <g transform="matrix(41.1434,0,0,143.897,935.484,821.519)">
                    <path d="M0.515,-0L0.48,-0.134L0.248,-0.134L0.212,-0L0,-0L0.233,-0.717L0.49,-0.717L0.726,-0L0.515,-0ZM0.44,-0.292L0.409,-0.409C0.402,-0.435 0.393,-0.469 0.383,-0.51C0.373,-0.552 0.366,-0.581 0.363,-0.599C0.36,-0.583 0.354,-0.555 0.345,-0.517C0.337,-0.479 0.318,-0.404 0.288,-0.292L0.44,-0.292Z" style="fill:rgb(31,36,87);fill-rule:nonzero;"/>
                </g>
                <g transform="matrix(41.1434,0,0,143.897,963.3,821.519)">
                    <path d="M0.27,-0.26L0.27,-0L0.077,-0L0.077,-0.714L0.311,-0.714C0.505,-0.714 0.602,-0.644 0.602,-0.503C0.602,-0.42 0.562,-0.356 0.481,-0.311L0.689,-0L0.47,-0L0.319,-0.26L0.27,-0.26ZM0.27,-0.405L0.306,-0.405C0.374,-0.405 0.407,-0.435 0.407,-0.494C0.407,-0.543 0.374,-0.568 0.308,-0.568L0.27,-0.568L0.27,-0.405Z" style="fill:rgb(31,36,87);fill-rule:nonzero;"/>
                </g>
                <g transform="matrix(41.1434,0,0,143.897,989.087,821.519)">
                    <path d="M0.501,-0L0.077,-0L0.077,-0.714L0.501,-0.714L0.501,-0.559L0.27,-0.559L0.27,-0.447L0.484,-0.447L0.484,-0.292L0.27,-0.292L0.27,-0.157L0.501,-0.157L0.501,-0Z" style="fill:rgb(31,36,87);fill-rule:nonzero;"/>
                </g>
                <g transform="matrix(41.1434,0,0,143.897,1018.24,821.519)">
                    <path d="M0.364,-0.418L0.672,-0.418L0.672,-0.033C0.588,-0.005 0.496,0.01 0.396,0.01C0.286,0.01 0.201,-0.022 0.141,-0.086C0.081,-0.15 0.051,-0.241 0.051,-0.359C0.051,-0.474 0.084,-0.564 0.149,-0.628C0.215,-0.692 0.307,-0.724 0.426,-0.724C0.471,-0.724 0.513,-0.72 0.553,-0.711C0.593,-0.703 0.628,-0.692 0.657,-0.679L0.596,-0.528C0.545,-0.553 0.488,-0.566 0.427,-0.566C0.37,-0.566 0.327,-0.548 0.296,-0.511C0.265,-0.474 0.25,-0.422 0.25,-0.354C0.25,-0.287 0.264,-0.236 0.292,-0.201C0.32,-0.166 0.36,-0.149 0.412,-0.149C0.441,-0.149 0.467,-0.152 0.491,-0.157L0.491,-0.269L0.364,-0.269L0.364,-0.418Z" style="fill:rgb(31,36,87);fill-rule:nonzero;"/>
                </g>
                <g transform="matrix(41.1434,0,0,143.897,1046.64,821.519)">
                    <path d="M0.27,-0.26L0.27,-0L0.077,-0L0.077,-0.714L0.311,-0.714C0.505,-0.714 0.602,-0.644 0.602,-0.503C0.602,-0.42 0.562,-0.356 0.481,-0.311L0.689,-0L0.47,-0L0.319,-0.26L0.27,-0.26ZM0.27,-0.405L0.306,-0.405C0.374,-0.405 0.407,-0.435 0.407,-0.494C0.407,-0.543 0.374,-0.568 0.308,-0.568L0.27,-0.568L0.27,-0.405Z" style="fill:rgb(31,36,87);fill-rule:nonzero;"/>
                </g>
                <g transform="matrix(41.1434,0,0,143.897,1072.43,821.519)">
                    <path d="M0.745,-0.358C0.745,-0.238 0.716,-0.146 0.657,-0.084C0.598,-0.021 0.512,0.01 0.398,0.01C0.286,0.01 0.2,-0.022 0.14,-0.084C0.081,-0.147 0.051,-0.239 0.051,-0.359C0.051,-0.478 0.08,-0.568 0.14,-0.631C0.199,-0.694 0.286,-0.725 0.399,-0.725C0.513,-0.725 0.599,-0.694 0.657,-0.632C0.716,-0.57 0.745,-0.478 0.745,-0.358ZM0.254,-0.358C0.254,-0.22 0.302,-0.151 0.398,-0.151C0.447,-0.151 0.483,-0.168 0.507,-0.201C0.53,-0.235 0.542,-0.287 0.542,-0.358C0.542,-0.429 0.53,-0.482 0.506,-0.516C0.482,-0.55 0.446,-0.567 0.399,-0.567C0.302,-0.567 0.254,-0.497 0.254,-0.358Z" style="fill:rgb(31,36,87);fill-rule:nonzero;"/>
                </g>
                <g transform="matrix(41.1434,0,0,143.897,1103.16,821.519)">
                    <path d="M0.684,-0.714L0.684,-0.284C0.684,-0.191 0.658,-0.118 0.605,-0.067C0.552,-0.016 0.476,0.01 0.376,0.01C0.279,0.01 0.204,-0.015 0.152,-0.065C0.099,-0.115 0.073,-0.186 0.073,-0.28L0.073,-0.714L0.267,-0.714L0.267,-0.295C0.267,-0.244 0.277,-0.208 0.295,-0.185C0.314,-0.162 0.342,-0.151 0.379,-0.151C0.418,-0.151 0.447,-0.162 0.465,-0.185C0.482,-0.207 0.491,-0.244 0.491,-0.296L0.491,-0.714L0.684,-0.714Z" style="fill:rgb(31,36,87);fill-rule:nonzero;"/>
                </g>
                <g transform="matrix(41.1434,0,0,143.897,1132.24,821.519)">
                    <path d="M0.595,-0.487C0.595,-0.407 0.572,-0.345 0.525,-0.302C0.478,-0.259 0.411,-0.237 0.324,-0.237L0.27,-0.237L0.27,-0L0.077,-0L0.077,-0.714L0.324,-0.714C0.414,-0.714 0.482,-0.694 0.527,-0.655C0.573,-0.615 0.595,-0.559 0.595,-0.487ZM0.27,-0.394L0.305,-0.394C0.334,-0.394 0.357,-0.402 0.374,-0.418C0.391,-0.435 0.4,-0.457 0.4,-0.486C0.4,-0.534 0.373,-0.558 0.32,-0.558L0.27,-0.558L0.27,-0.394Z" style="fill:rgb(31,36,87);fill-rule:nonzero;"/>
                </g>
            </g>
        </g>
        <g transform="matrix(-0.446125,6.32375e-33,6.32375e-33,0.446125,1024.37,87.3983)">
            <g id="M-Rounded-More" serif:id="M Rounded More" transform="matrix(-1.15,1.63011e-32,1.63011e-32,1.15,1257.7,18.0436)">
                <path d="M324,501.984L243,501.984C243,501.984 243,510 243,235C243,203.064 321.5,194.567 400,194.561C478.5,194.555 557,202.04 557,235L557,501.984L476,501.984L476,296.592C475.513,285.823 453.217,286 442.5,286.546L442.5,501.984L357.5,501.984L357.5,286.521C346.783,285.976 324.487,285.799 324,296.568L324,501.984Z" style="fill:rgb(31,36,87);"/>
            </g>
            <g transform="matrix(-1.19144,-5.83744e-31,1.11049e-32,0.783424,1265.94,-54.2045)">
                <path d="M615,248.615C614.883,211.548 503.942,187.138 393,187.128C282,187.118 171,211.528 171,248.615C171,248.615 198.215,365.19 241.461,347.049C320.237,314.005 465.763,313.795 544.539,347.001C587.754,365.216 615,248.615 615,248.615Z" style="fill:rgb(250,193,115);"/>
            </g>
        </g>
    </g>
</svg>
