<?xml version="1.0" encoding="UTF-8" standalone="no"?><!DOCTYPE svg PUBLIC "-//W3C//DTD SVG 1.1//EN" "http://www.w3.org/Graphics/SVG/1.1/DTD/svg11.dtd"><svg width="100%" height="100%" viewBox="0 0 683 191" version="1.1" xmlns="http://www.w3.org/2000/svg" xmlns:xlink="http://www.w3.org/1999/xlink" xml:space="preserve" xmlns:serif="http://www.serif.com/" style="fill-rule:evenodd;clip-rule:evenodd;stroke-linejoin:round;stroke-miterlimit:2;"><g><g><g><path d="M228.815,137.497l-13.265,-46.713l-0.399,0c0.621,7.956 0.932,14.137 0.932,18.544l-0,28.169l-15.527,0l0,-64.857l23.334,0l13.531,46.048l0.355,-0l13.264,-46.048l23.379,0l-0,64.857l-16.104,0l0,-28.436c0,-1.478 0.022,-3.12 0.067,-4.924c0.044,-1.804 0.244,-6.225 0.599,-13.264l-0.4,0l-13.086,46.624l-16.68,0Z" style="fill:#003375;fill-rule:nonzero;"/><path d="M338.992,72.64l-0,39.039c-0,8.488 -2.403,15.061 -7.209,19.719c-4.806,4.658 -11.734,6.987 -20.784,6.987c-8.842,-0 -15.637,-2.263 -20.384,-6.788c-4.747,-4.525 -7.12,-11.031 -7.12,-19.519l0,-39.438l17.612,0l-0,38.063c-0,4.584 0.857,7.911 2.573,9.981c1.715,2.07 4.244,3.106 7.586,3.106c3.578,-0 6.173,-1.028 7.785,-3.084c1.612,-2.055 2.418,-5.419 2.418,-10.092l-0,-37.974l17.523,0Z" style="fill:#003375;fill-rule:nonzero;"/><path d="M409.82,137.497l-22.98,0l-23.689,-45.692l-0.399,-0c0.562,7.186 0.843,12.672 0.843,16.458l-0,29.234l-15.527,0l0,-64.857l22.891,0l23.6,45.072l0.267,-0c-0.414,-6.536 -0.622,-11.786 -0.622,-15.749l0,-29.323l15.616,0l-0,64.857Z" style="fill:#003375;fill-rule:nonzero;"/><rect x="419.296" y="72.64" width="17.612" height="64.857" style="fill:#003375;fill-rule:nonzero;"/><path d="M475.262,86.082c-4.17,-0 -7.423,1.708 -9.759,5.124c-2.337,3.416 -3.505,8.125 -3.505,14.129c0,12.48 4.747,18.721 14.24,18.721c2.869,-0 5.649,-0.4 8.34,-1.198c2.692,-0.799 5.398,-1.76 8.119,-2.884l-0,14.817c-5.412,2.396 -11.534,3.594 -18.366,3.594c-9.789,-0 -17.294,-2.84 -22.514,-8.518c-5.22,-5.678 -7.83,-13.885 -7.83,-24.621c0,-6.713 1.265,-12.613 3.793,-17.7c2.529,-5.087 6.167,-8.998 10.913,-11.734c4.747,-2.735 10.329,-4.103 16.747,-4.103c7.009,-0 13.708,1.523 20.096,4.569l-5.368,13.796c-2.395,-1.123 -4.791,-2.07 -7.187,-2.839c-2.395,-0.769 -4.968,-1.153 -7.719,-1.153Z" style="fill:#003375;fill-rule:nonzero;"/><rect x="500.797" y="72.64" width="17.612" height="64.857" style="fill:#003375;fill-rule:nonzero;"/><path d="M574.952,93.269c0,7.245 -2.136,12.842 -6.41,16.791c-4.273,3.948 -10.344,5.922 -18.21,5.922l-4.925,-0l0,21.515l-17.522,0l-0,-64.857l22.447,0c8.192,0 14.343,1.79 18.454,5.368c4.111,3.579 6.166,8.665 6.166,15.261Zm-29.545,8.428l3.194,0c2.633,0 4.725,-0.739 6.278,-2.218c1.552,-1.479 2.329,-3.519 2.329,-6.122c-0,-4.377 -2.425,-6.565 -7.276,-6.565l-4.525,-0l0,14.905Z" style="fill:#003375;fill-rule:nonzero;"/><path d="M617.271,137.231l-3.194,-12.155l-21.072,0l-3.283,12.155l-19.253,0l21.161,-65.123l23.379,-0l21.426,65.123l-19.164,0Zm-6.832,-26.528l-2.794,-10.647c-0.651,-2.366 -1.442,-5.427 -2.374,-9.183c-0.931,-3.756 -1.545,-6.447 -1.841,-8.074c-0.266,1.508 -0.791,3.993 -1.575,7.453c-0.783,3.46 -2.521,10.277 -5.212,20.451l13.796,-0Z" style="fill:#003375;fill-rule:nonzero;"/><path d="M639.903,137.231l-0,-64.857l17.523,0l-0,50.706l24.975,-0l0,14.151l-42.498,0Z" style="fill:#003375;fill-rule:nonzero;"/></g><g><path d="M228.651,178.032c0,2.472 -0.627,4.667 -1.881,6.584c-1.254,1.918 -3.063,3.408 -5.426,4.472c-2.363,1.063 -5.134,1.595 -8.315,1.595c-2.654,-0 -4.881,-0.187 -6.68,-0.559c-1.799,-0.373 -3.672,-1.023 -5.616,-1.95l-0,-9.597c2.054,1.055 4.189,1.877 6.407,2.468c2.217,0.591 4.253,0.886 6.107,0.886c1.599,-0 2.772,-0.277 3.517,-0.832c0.745,-0.554 1.118,-1.267 1.118,-2.14c-0,-0.545 -0.15,-1.022 -0.45,-1.431c-0.3,-0.409 -0.782,-0.823 -1.445,-1.241c-0.664,-0.418 -2.431,-1.272 -5.303,-2.563c-2.599,-1.181 -4.549,-2.326 -5.848,-3.435c-1.3,-1.109 -2.263,-2.381 -2.89,-3.817c-0.627,-1.436 -0.941,-3.135 -0.941,-5.098c0,-3.672 1.336,-6.534 4.008,-8.588c2.672,-2.054 6.344,-3.081 11.015,-3.081c4.126,-0 8.333,0.954 12.623,2.863l-3.299,8.315c-3.726,-1.708 -6.943,-2.563 -9.651,-2.563c-1.4,0 -2.418,0.246 -3.054,0.736c-0.636,0.491 -0.954,1.1 -0.954,1.827c-0,0.782 0.404,1.481 1.213,2.099c0.809,0.618 3.004,1.745 6.584,3.381c3.436,1.545 5.821,3.204 7.157,4.976c1.336,1.772 2.004,4.003 2.004,6.693Z" style="fill:#003375;fill-rule:nonzero;"/><path d="M269.318,170.153c0,6.707 -1.645,11.805 -4.935,15.295c-3.29,3.49 -8.106,5.235 -14.45,5.235c-6.252,-0 -11.046,-1.754 -14.381,-5.262c-3.336,-3.508 -5.003,-8.616 -5.003,-15.323c-0,-6.634 1.658,-11.701 4.975,-15.199c3.317,-3.499 8.139,-5.249 14.464,-5.249c6.343,0 11.151,1.736 14.423,5.208c3.271,3.471 4.907,8.57 4.907,15.295Zm-27.428,-0c0,7.706 2.681,11.56 8.043,11.56c2.727,-0 4.749,-0.936 6.067,-2.808c1.317,-1.873 1.976,-4.79 1.976,-8.752c0,-3.981 -0.668,-6.921 -2.004,-8.82c-1.336,-1.899 -3.33,-2.849 -5.984,-2.849c-5.398,-0 -8.098,3.889 -8.098,11.669Z" style="fill:#003375;fill-rule:nonzero;"/><path d="M283.33,190.137l-10.606,0l-0,-39.86l23.556,0l0,8.643l-12.95,0l-0,7.607l11.941,-0l0,8.642l-11.941,0l-0,14.968Z" style="fill:#003375;fill-rule:nonzero;"/><path d="M318.617,190.137l-10.769,0l-0,-31.053l-9.734,-0l0,-8.807l30.209,0l-0,8.807l-9.706,-0l-0,31.053Z" style="fill:#003375;fill-rule:nonzero;"/><path d="M376.67,190.41l-12.733,0l-3.817,-17.367c-0.181,-0.727 -0.468,-2.172 -0.858,-4.335c-0.391,-2.163 -0.677,-3.972 -0.859,-5.426c-0.146,1.182 -0.382,2.649 -0.709,4.403c-0.327,1.754 -0.65,3.368 -0.968,4.84c-0.318,1.472 -1.64,7.434 -3.967,17.885l-12.732,0l-9.87,-39.86l10.388,-0l4.335,19.985c0.981,4.416 1.654,7.933 2.017,10.551c0.237,-1.854 0.659,-4.372 1.268,-7.552c0.609,-3.181 1.177,-5.817 1.704,-7.907l3.517,-15.077l9.979,-0l3.408,15.077c0.582,2.417 1.172,5.207 1.772,8.37c0.6,3.163 1,5.526 1.2,7.089c0.236,-2.018 0.881,-5.517 1.935,-10.497l4.417,-20.039l10.388,-0l-9.815,39.86Z" style="fill:#003375;fill-rule:nonzero;"/><path d="M410.911,190.137l-1.963,-7.47l-12.95,0l-2.018,7.47l-11.832,0l13.005,-40.023l14.368,-0l13.168,40.023l-11.778,0Zm-4.198,-16.304l-1.718,-6.543c-0.4,-1.454 -0.886,-3.335 -1.459,-5.644c-0.572,-2.308 -0.949,-3.962 -1.131,-4.962c-0.164,0.927 -0.486,2.454 -0.968,4.581c-0.482,2.126 -1.55,6.316 -3.204,12.568l8.48,0Z" style="fill:#003375;fill-rule:nonzero;"/><path d="M434.975,175.633l-0,14.504l-10.77,0l0,-39.86l13.06,0c10.833,0 16.249,3.926 16.249,11.778c0,4.617 -2.254,8.189 -6.761,10.715l11.614,17.367l-12.214,0l-8.452,-14.504l-2.726,-0Zm-0,-8.098l2.017,0c3.762,0 5.644,-1.663 5.644,-4.989c-0,-2.744 -1.845,-4.117 -5.535,-4.117l-2.126,0l-0,9.106Z" style="fill:#003375;fill-rule:nonzero;"/><path d="M482.867,190.137l-23.666,0l0,-39.86l23.666,0l-0,8.643l-12.896,0l-0,6.271l11.941,-0l0,8.642l-11.941,0l-0,7.525l12.896,0l-0,8.779Z" style="fill:#003375;fill-rule:nonzero;"/><path d="M514.771,166.799l17.204,0l-0,21.484c-4.672,1.6 -9.806,2.4 -15.405,2.4c-6.143,-0 -10.892,-1.782 -14.245,-5.344c-3.354,-3.563 -5.03,-8.643 -5.03,-15.241c-0,-6.434 1.835,-11.442 5.507,-15.022c3.672,-3.581 8.815,-5.371 15.431,-5.371c2.509,-0 4.876,0.236 7.103,0.709c2.226,0.472 4.167,1.072 5.821,1.799l-3.408,8.452c-2.872,-1.418 -6.026,-2.127 -9.461,-2.127c-3.144,0 -5.575,1.023 -7.293,3.068c-1.718,2.044 -2.577,4.966 -2.577,8.765c0,3.726 0.777,6.566 2.332,8.52c1.554,1.954 3.794,2.931 6.72,2.931c1.6,-0 3.072,-0.155 4.417,-0.464l-0,-6.243l-7.116,-0l-0,-8.316Z" style="fill:#003375;fill-rule:nonzero;"/><path d="M548.077,175.633l-0,14.504l-10.77,0l0,-39.86l13.06,0c10.833,0 16.249,3.926 16.249,11.778c0,4.617 -2.254,8.189 -6.761,10.715l11.614,17.367l-12.214,0l-8.452,-14.504l-2.726,-0Zm-0,-8.098l2.017,0c3.763,0 5.644,-1.663 5.644,-4.989c-0,-2.744 -1.845,-4.117 -5.535,-4.117l-2.126,0l-0,9.106Z" style="fill:#003375;fill-rule:nonzero;"/><path d="M609.601,170.153c-0,6.707 -1.645,11.805 -4.935,15.295c-3.29,3.49 -8.107,5.235 -14.45,5.235c-6.253,-0 -11.046,-1.754 -14.382,-5.262c-3.335,-3.508 -5.003,-8.616 -5.003,-15.323c0,-6.634 1.659,-11.701 4.976,-15.199c3.317,-3.499 8.138,-5.249 14.464,-5.249c6.343,0 11.151,1.736 14.422,5.208c3.272,3.471 4.908,8.57 4.908,15.295Zm-27.428,-0c0,7.706 2.681,11.56 8.043,11.56c2.726,-0 4.749,-0.936 6.066,-2.808c1.318,-1.873 1.977,-4.79 1.977,-8.752c-0,-3.981 -0.668,-6.921 -2.004,-8.82c-1.336,-1.899 -3.331,-2.849 -5.984,-2.849c-5.399,-0 -8.098,3.889 -8.098,11.669Z" style="fill:#003375;fill-rule:nonzero;"/><path d="M647.896,150.277l-0,23.993c-0,5.216 -1.477,9.256 -4.431,12.119c-2.953,2.862 -7.211,4.294 -12.773,4.294c-5.434,-0 -9.61,-1.391 -12.528,-4.172c-2.917,-2.781 -4.375,-6.779 -4.375,-11.996l-0,-24.238l10.823,0l0,23.393c0,2.817 0.527,4.862 1.582,6.134c1.054,1.273 2.608,1.909 4.662,1.909c2.199,-0 3.794,-0.632 4.785,-1.895c0.99,-1.263 1.486,-3.331 1.486,-6.203l-0,-23.338l10.769,0Z" style="fill:#003375;fill-rule:nonzero;"/><path d="M682.401,162.955c0,4.453 -1.313,7.893 -3.939,10.32c-2.627,2.426 -6.357,3.639 -11.192,3.639l-3.027,0l0,13.223l-10.769,0l0,-39.86l13.796,0c5.034,0 8.815,1.1 11.342,3.299c2.526,2.2 3.789,5.326 3.789,9.379Zm-18.158,5.18l1.963,0c1.618,0 2.904,-0.454 3.858,-1.363c0.955,-0.909 1.432,-2.163 1.432,-3.762c-0,-2.69 -1.491,-4.035 -4.472,-4.035l-2.781,-0l0,9.16Z" style="fill:#003375;fill-rule:nonzero;"/></g></g><g><path id="M-Rounded-More" serif:id="M Rounded More" d="M67.143,190.672l-35.316,0c0,0 0,3.495 0,-116.403c0,-13.924 34.226,-17.628 68.451,-17.63c34.225,-0.003 68.451,3.26 68.451,17.63l-0,116.403l-35.316,0l0,-89.549c-0.212,-4.695 -9.933,-4.618 -14.605,-4.38l-0,93.929l-37.06,0l0,-93.94c-4.672,-0.238 -14.393,-0.315 -14.605,4.38l-0,89.56Z" style="fill:#003375;"/><path d="M200.556,18.263c-0.053,-11.01 -50.165,-18.26 -100.278,-18.263c-50.139,-0.003 -100.278,7.247 -100.278,18.263c0,-0 12.293,34.624 31.827,29.236c35.584,-9.815 101.318,-9.877 136.902,-0.015c19.52,5.411 31.827,-29.221 31.827,-29.221Z" style="fill:#fac173;"/></g></g></svg>