<svg width="304" height="247" viewBox="0 0 304 247" fill="none" xmlns="http://www.w3.org/2000/svg">
<rect width="250" height="158" rx="10" fill="#E2E2E2"/>
<rect x="22" y="77" width="112" height="24" fill="white"/>
<path d="M55.9732 82.8786C58.1399 72.2119 48.5382 77.3786 43.9732 87.8786C42.4515 91.3786 41.4732 109.545 50.9732 92.8786C53.9732 90.3786 59.9732 86.8786 59.9732 92.8786C59.9732 98.8786 57.3065 98.0452 55.9732 96.8786C56.9732 92.2119 60.9732 83.8786 68.9732 87.8786C76.9732 91.8786 81.6398 86.2119 82.9732 82.8786C82.1398 85.0452 82.4732 90.8786 90.4732 96.8786C98.4732 102.879 95.8065 93.3786 93.4732 87.8786L82.9732 96.8786C94.4732 95.5452 117.873 91.8786 119.473 87.8786" stroke="black"/>
<path d="M149.47 91.92C149.47 92.5173 149.321 93.068 149.022 93.572C148.733 94.076 148.336 94.4773 147.832 94.776C147.328 95.0653 146.777 95.21 146.18 95.21C145.583 95.21 145.032 95.0653 144.528 94.776C144.024 94.4773 143.623 94.076 143.324 93.572C143.035 93.068 142.89 92.5173 142.89 91.92V88.35C142.89 87.7527 143.035 87.202 143.324 86.698C143.623 86.194 144.024 85.7973 144.528 85.508C145.032 85.2093 145.583 85.06 146.18 85.06C146.777 85.06 147.328 85.2093 147.832 85.508C148.336 85.7973 148.733 86.194 149.022 86.698C149.321 87.202 149.47 87.7527 149.47 88.35V91.92ZM143.394 91.92C143.394 92.2373 143.455 92.564 143.576 92.9L148.518 86.866C148.266 86.474 147.935 86.1613 147.524 85.928C147.113 85.6947 146.665 85.578 146.18 85.578C145.676 85.578 145.209 85.704 144.78 85.956C144.36 86.1987 144.024 86.5347 143.772 86.964C143.52 87.384 143.394 87.846 143.394 88.35V91.92ZM148.966 88.35C148.966 88.0327 148.905 87.706 148.784 87.37L143.842 93.404C144.094 93.8053 144.425 94.1227 144.836 94.356C145.247 94.5893 145.695 94.706 146.18 94.706C146.684 94.706 147.146 94.58 147.566 94.328C147.995 94.076 148.336 93.74 148.588 93.32C148.84 92.8907 148.966 92.424 148.966 91.92V88.35ZM159.833 91.92C159.833 92.5173 159.684 93.068 159.385 93.572C159.096 94.076 158.699 94.4773 158.195 94.776C157.691 95.0653 157.141 95.21 156.543 95.21C155.946 95.21 155.395 95.0653 154.891 94.776C154.387 94.4773 153.986 94.076 153.687 93.572C153.398 93.068 153.253 92.5173 153.253 91.92V88.35C153.253 87.7527 153.398 87.202 153.687 86.698C153.986 86.194 154.387 85.7973 154.891 85.508C155.395 85.2093 155.946 85.06 156.543 85.06C157.141 85.06 157.691 85.2093 158.195 85.508C158.699 85.7973 159.096 86.194 159.385 86.698C159.684 87.202 159.833 87.7527 159.833 88.35V91.92ZM153.757 91.92C153.757 92.2373 153.818 92.564 153.939 92.9L158.881 86.866C158.629 86.474 158.298 86.1613 157.887 85.928C157.477 85.6947 157.029 85.578 156.543 85.578C156.039 85.578 155.573 85.704 155.143 85.956C154.723 86.1987 154.387 86.5347 154.135 86.964C153.883 87.384 153.757 87.846 153.757 88.35V91.92ZM159.329 88.35C159.329 88.0327 159.269 87.706 159.147 87.37L154.205 93.404C154.457 93.8053 154.789 94.1227 155.199 94.356C155.61 94.5893 156.058 94.706 156.543 94.706C157.047 94.706 157.509 94.58 157.929 94.328C158.359 94.076 158.699 93.74 158.951 93.32C159.203 92.8907 159.329 92.424 159.329 91.92V88.35ZM170.197 91.92C170.197 92.5173 170.047 93.068 169.749 93.572C169.459 94.076 169.063 94.4773 168.559 94.776C168.055 95.0653 167.504 95.21 166.907 95.21C166.309 95.21 165.759 95.0653 165.255 94.776C164.751 94.4773 164.349 94.076 164.051 93.572C163.761 93.068 163.617 92.5173 163.617 91.92V88.35C163.617 87.7527 163.761 87.202 164.051 86.698C164.349 86.194 164.751 85.7973 165.255 85.508C165.759 85.2093 166.309 85.06 166.907 85.06C167.504 85.06 168.055 85.2093 168.559 85.508C169.063 85.7973 169.459 86.194 169.749 86.698C170.047 87.202 170.197 87.7527 170.197 88.35V91.92ZM164.121 91.92C164.121 92.2373 164.181 92.564 164.303 92.9L169.245 86.866C168.993 86.474 168.661 86.1613 168.251 85.928C167.84 85.6947 167.392 85.578 166.907 85.578C166.403 85.578 165.936 85.704 165.507 85.956C165.087 86.1987 164.751 86.5347 164.499 86.964C164.247 87.384 164.121 87.846 164.121 88.35V91.92ZM169.693 88.35C169.693 88.0327 169.632 87.706 169.511 87.37L164.569 93.404C164.821 93.8053 165.152 94.1227 165.563 94.356C165.973 94.5893 166.421 94.706 166.907 94.706C167.411 94.706 167.873 94.58 168.293 94.328C168.722 94.076 169.063 93.74 169.315 93.32C169.567 92.8907 169.693 92.424 169.693 91.92V88.35Z" fill="black"/>
<rect y="26" width="250" height="28" fill="#393939"/>
<rect x="54" y="89" width="250" height="158" rx="10" fill="#FAC173"/>
<path d="M177.3 220.04H182.2V220.41H177.67V223.23H181.61V223.6H177.67V226.63H182.2V227H177.3V220.04ZM186.862 223.52L184.192 220.04H184.672L187.102 223.21L189.542 220.04H190.012L187.342 223.52L190.012 227H189.542L187.102 223.83L184.672 227H184.192L186.862 223.52ZM192.565 227H192.195V220.04H194.995C195.461 220.04 195.891 220.14 196.285 220.34C196.685 220.54 197.001 220.823 197.235 221.19C197.468 221.557 197.585 221.98 197.585 222.46C197.585 222.92 197.465 223.343 197.225 223.73C196.991 224.117 196.671 224.413 196.265 224.62C195.911 224.8 195.488 224.89 194.995 224.89H192.565V227ZM192.565 224.52H194.995C195.421 224.52 195.771 224.453 196.045 224.32C196.398 224.153 196.681 223.903 196.895 223.57C197.108 223.237 197.215 222.867 197.215 222.46C197.215 222.06 197.108 221.693 196.895 221.36C196.681 221.027 196.395 220.777 196.035 220.61C195.761 220.477 195.415 220.41 194.995 220.41H192.565V224.52ZM211.659 224.8C211.659 225.227 211.553 225.62 211.339 225.98C211.133 226.34 210.849 226.627 210.489 226.84C210.129 227.047 209.736 227.15 209.309 227.15C208.883 227.15 208.489 227.047 208.129 226.84C207.769 226.627 207.483 226.34 207.269 225.98C207.063 225.62 206.959 225.227 206.959 224.8V222.25C206.959 221.823 207.063 221.43 207.269 221.07C207.483 220.71 207.769 220.427 208.129 220.22C208.489 220.007 208.883 219.9 209.309 219.9C209.736 219.9 210.129 220.007 210.489 220.22C210.849 220.427 211.133 220.71 211.339 221.07C211.553 221.43 211.659 221.823 211.659 222.25V224.8ZM207.319 224.8C207.319 225.027 207.363 225.26 207.449 225.5L210.979 221.19C210.799 220.91 210.563 220.687 210.269 220.52C209.976 220.353 209.656 220.27 209.309 220.27C208.949 220.27 208.616 220.36 208.309 220.54C208.009 220.713 207.769 220.953 207.589 221.26C207.409 221.56 207.319 221.89 207.319 222.25V224.8ZM211.299 222.25C211.299 222.023 211.256 221.79 211.169 221.55L207.639 225.86C207.819 226.147 208.056 226.373 208.349 226.54C208.643 226.707 208.963 226.79 209.309 226.79C209.669 226.79 209.999 226.7 210.299 226.52C210.606 226.34 210.849 226.1 211.029 225.8C211.209 225.493 211.299 225.16 211.299 224.8V222.25ZM216.532 226.63V221.31C216.312 221.65 216.022 221.92 215.662 222.12C215.308 222.32 214.922 222.42 214.502 222.42V222.06C214.868 222.06 215.205 221.97 215.512 221.79C215.825 221.603 216.072 221.357 216.252 221.05C216.438 220.737 216.532 220.397 216.532 220.03H216.892V226.63H218.992V227H214.432V226.63H216.532ZM221.484 227L226.294 219.6H226.744L221.934 227H221.484ZM233.676 226.63V227H229.356V226.63L230.856 224.98L232.216 223.5L232.336 223.37C232.603 223.09 232.81 222.837 232.956 222.61C233.103 222.377 233.176 222.127 233.176 221.86C233.176 221.56 233.1 221.287 232.946 221.04C232.8 220.793 232.593 220.6 232.326 220.46C232.066 220.32 231.776 220.25 231.456 220.25C231.15 220.25 230.863 220.327 230.596 220.48C230.336 220.633 230.13 220.843 229.976 221.11C229.823 221.37 229.746 221.657 229.746 221.97H229.376C229.376 221.59 229.47 221.243 229.656 220.93C229.843 220.61 230.093 220.357 230.406 220.17C230.726 219.983 231.076 219.89 231.456 219.89C231.85 219.89 232.203 219.977 232.516 220.15C232.836 220.317 233.086 220.55 233.266 220.85C233.453 221.15 233.546 221.487 233.546 221.86C233.546 222.193 233.463 222.49 233.296 222.75C233.13 223.01 232.9 223.3 232.606 223.62L232.486 223.75L229.856 226.63H233.676ZM241.079 226.63V227H236.759V226.63L238.259 224.98L239.619 223.5L239.739 223.37C240.005 223.09 240.212 222.837 240.359 222.61C240.505 222.377 240.579 222.127 240.579 221.86C240.579 221.56 240.502 221.287 240.349 221.04C240.202 220.793 239.995 220.6 239.729 220.46C239.469 220.32 239.179 220.25 238.859 220.25C238.552 220.25 238.265 220.327 237.999 220.48C237.739 220.633 237.532 220.843 237.379 221.11C237.225 221.37 237.149 221.657 237.149 221.97H236.779C236.779 221.59 236.872 221.243 237.059 220.93C237.245 220.61 237.495 220.357 237.809 220.17C238.129 219.983 238.479 219.89 238.859 219.89C239.252 219.89 239.605 219.977 239.919 220.15C240.239 220.317 240.489 220.55 240.669 220.85C240.855 221.15 240.949 221.487 240.949 221.86C240.949 222.193 240.865 222.49 240.699 222.75C240.532 223.01 240.302 223.3 240.009 223.62L239.889 223.75L237.259 226.63H241.079Z" fill="white"/>
<rect x="136" y="187" width="54" height="38" rx="5" transform="rotate(-180 136 187)" fill="#F3D9B0"/>
<path fill-rule="evenodd" clip-rule="evenodd" d="M108.589 149V151.033H102H101.5V151.533V160.653V173.827V183.96V184.467V184.967H102H108.589V187H109.589V184.967H116.177H116.677V184.467V174.327H136V173.327H116.677V161.153H136V160.153H116.177H115.677V160.653V173.827V183.967H109.089H102.5V183.96V173.827V160.653V152.033H109.089H109.589V151.533V149H108.589Z" fill="#9A6738"/>
<path d="M82 174H102M82 161H102" stroke="#9A6738"/>
<path d="M83.012 228.21C82.3493 228.21 81.7333 228.061 81.164 227.762C80.5947 227.454 80.128 227.034 79.764 226.502C79.4 225.97 79.1853 225.382 79.12 224.738H79.638C79.7033 225.289 79.8947 225.793 80.212 226.25C80.5293 226.698 80.9307 227.053 81.416 227.314C81.9107 227.566 82.4427 227.692 83.012 227.692C83.6373 227.692 84.2113 227.538 84.734 227.23C85.2567 226.922 85.672 226.497 85.98 225.956C86.288 225.415 86.442 224.808 86.442 224.136V218.774H82.074V218.256H86.946V224.136C86.946 224.901 86.7687 225.597 86.414 226.222C86.0687 226.838 85.5927 227.323 84.986 227.678C84.3887 228.033 83.7307 228.21 83.012 228.21ZM93.5433 218.046C94.2713 218.046 94.9433 218.228 95.5593 218.592C96.1753 218.947 96.6606 219.432 97.0153 220.048C97.3793 220.664 97.5613 221.336 97.5613 222.064V224.192C97.5613 224.92 97.3793 225.592 97.0153 226.208C96.6606 226.824 96.1753 227.314 95.5593 227.678C94.9433 228.033 94.2713 228.21 93.5433 228.21C92.8153 228.21 92.1433 228.033 91.5273 227.678C90.9113 227.314 90.4213 226.824 90.0573 226.208C89.7026 225.592 89.5253 224.92 89.5253 224.192V222.064C89.5253 221.336 89.7026 220.664 90.0573 220.048C90.4213 219.432 90.9113 218.947 91.5273 218.592C92.1433 218.228 92.8153 218.046 93.5433 218.046ZM90.0433 224.192C90.0433 224.827 90.1973 225.415 90.5053 225.956C90.8226 226.488 91.2473 226.913 91.7793 227.23C92.3206 227.538 92.9086 227.692 93.5433 227.692C94.1779 227.692 94.7613 227.538 95.2933 227.23C95.8346 226.913 96.2593 226.488 96.5673 225.956C96.8846 225.415 97.0433 224.827 97.0433 224.192V222.064C97.0433 221.429 96.8846 220.846 96.5673 220.314C96.2593 219.773 95.8346 219.348 95.2933 219.04C94.7613 218.723 94.1779 218.564 93.5433 218.564C92.9086 218.564 92.3206 218.723 91.7793 219.04C91.2473 219.348 90.8226 219.773 90.5053 220.314C90.1973 220.846 90.0433 221.429 90.0433 222.064V224.192ZM100.155 228V218.256H100.673V222.862H107.141V218.256H107.659V228H107.141V223.38H100.673V228H100.155ZM110.462 228V218.256H111.008L117.812 224.864V218.256H118.33V228H117.812V225.592L110.98 218.928V228H110.462ZM134.898 218.256C135.608 218.256 136.261 218.433 136.858 218.788C137.465 219.143 137.946 219.623 138.3 220.23C138.655 220.827 138.832 221.481 138.832 222.19V224.066C138.832 224.775 138.655 225.433 138.3 226.04C137.946 226.637 137.465 227.113 136.858 227.468C136.261 227.823 135.608 228 134.898 228H131.3V218.256H134.898ZM138.314 222.19C138.314 221.574 138.16 221.005 137.852 220.482C137.544 219.959 137.124 219.544 136.592 219.236C136.07 218.928 135.5 218.774 134.884 218.774H131.818V227.482H134.884C135.5 227.482 136.07 227.328 136.592 227.02C137.124 226.712 137.544 226.297 137.852 225.774C138.16 225.251 138.314 224.682 138.314 224.066V222.19ZM145.36 218.046C146.088 218.046 146.76 218.228 147.376 218.592C147.992 218.947 148.477 219.432 148.832 220.048C149.196 220.664 149.378 221.336 149.378 222.064V224.192C149.378 224.92 149.196 225.592 148.832 226.208C148.477 226.824 147.992 227.314 147.376 227.678C146.76 228.033 146.088 228.21 145.36 228.21C144.632 228.21 143.96 228.033 143.344 227.678C142.728 227.314 142.238 226.824 141.874 226.208C141.519 225.592 141.342 224.92 141.342 224.192V222.064C141.342 221.336 141.519 220.664 141.874 220.048C142.238 219.432 142.728 218.947 143.344 218.592C143.96 218.228 144.632 218.046 145.36 218.046ZM141.86 224.192C141.86 224.827 142.014 225.415 142.322 225.956C142.639 226.488 143.064 226.913 143.596 227.23C144.137 227.538 144.725 227.692 145.36 227.692C145.994 227.692 146.578 227.538 147.11 227.23C147.651 226.913 148.076 226.488 148.384 225.956C148.701 225.415 148.86 224.827 148.86 224.192V222.064C148.86 221.429 148.701 220.846 148.384 220.314C148.076 219.773 147.651 219.348 147.11 219.04C146.578 218.723 145.994 218.564 145.36 218.564C144.725 218.564 144.137 218.723 143.596 219.04C143.064 219.348 142.639 219.773 142.322 220.314C142.014 220.846 141.86 221.429 141.86 222.064V224.192ZM152.363 218.256H159.223V218.774H152.881V222.722H158.397V223.24H152.881V227.482H159.223V228H152.363V218.256Z" fill="white"/>
<path d="M89.47 203.92C89.47 204.517 89.3207 205.068 89.022 205.572C88.7327 206.076 88.336 206.477 87.832 206.776C87.328 207.065 86.7773 207.21 86.18 207.21C85.5827 207.21 85.032 207.065 84.528 206.776C84.024 206.477 83.6227 206.076 83.324 205.572C83.0347 205.068 82.89 204.517 82.89 203.92V200.35C82.89 199.753 83.0347 199.202 83.324 198.698C83.6227 198.194 84.024 197.797 84.528 197.508C85.032 197.209 85.5827 197.06 86.18 197.06C86.7773 197.06 87.328 197.209 87.832 197.508C88.336 197.797 88.7327 198.194 89.022 198.698C89.3207 199.202 89.47 199.753 89.47 200.35V203.92ZM83.394 203.92C83.394 204.237 83.4547 204.564 83.576 204.9L88.518 198.866C88.266 198.474 87.9347 198.161 87.524 197.928C87.1133 197.695 86.6653 197.578 86.18 197.578C85.676 197.578 85.2093 197.704 84.78 197.956C84.36 198.199 84.024 198.535 83.772 198.964C83.52 199.384 83.394 199.846 83.394 200.35V203.92ZM88.966 200.35C88.966 200.033 88.9053 199.706 88.784 199.37L83.842 205.404C84.094 205.805 84.4253 206.123 84.836 206.356C85.2467 206.589 85.6947 206.706 86.18 206.706C86.684 206.706 87.146 206.58 87.566 206.328C87.9953 206.076 88.336 205.74 88.588 205.32C88.84 204.891 88.966 204.424 88.966 203.92V200.35ZM99.8333 203.92C99.8333 204.517 99.6839 205.068 99.3853 205.572C99.0959 206.076 98.6993 206.477 98.1953 206.776C97.6913 207.065 97.1406 207.21 96.5433 207.21C95.9459 207.21 95.3953 207.065 94.8913 206.776C94.3873 206.477 93.9859 206.076 93.6873 205.572C93.3979 205.068 93.2533 204.517 93.2533 203.92V200.35C93.2533 199.753 93.3979 199.202 93.6873 198.698C93.9859 198.194 94.3873 197.797 94.8913 197.508C95.3953 197.209 95.9459 197.06 96.5433 197.06C97.1406 197.06 97.6913 197.209 98.1953 197.508C98.6993 197.797 99.0959 198.194 99.3853 198.698C99.6839 199.202 99.8333 199.753 99.8333 200.35V203.92ZM93.7573 203.92C93.7573 204.237 93.8179 204.564 93.9393 204.9L98.8813 198.866C98.6293 198.474 98.2979 198.161 97.8873 197.928C97.4766 197.695 97.0286 197.578 96.5433 197.578C96.0393 197.578 95.5726 197.704 95.1433 197.956C94.7233 198.199 94.3873 198.535 94.1353 198.964C93.8833 199.384 93.7573 199.846 93.7573 200.35V203.92ZM99.3293 200.35C99.3293 200.033 99.2686 199.706 99.1473 199.37L94.2053 205.404C94.4573 205.805 94.7886 206.123 95.1993 206.356C95.6099 206.589 96.0579 206.706 96.5433 206.706C97.0473 206.706 97.5093 206.58 97.9293 206.328C98.3586 206.076 98.6993 205.74 98.9513 205.32C99.2033 204.891 99.3293 204.424 99.3293 203.92V200.35ZM110.197 203.92C110.197 204.517 110.047 205.068 109.749 205.572C109.459 206.076 109.063 206.477 108.559 206.776C108.055 207.065 107.504 207.21 106.907 207.21C106.309 207.21 105.759 207.065 105.255 206.776C104.751 206.477 104.349 206.076 104.051 205.572C103.761 205.068 103.617 204.517 103.617 203.92V200.35C103.617 199.753 103.761 199.202 104.051 198.698C104.349 198.194 104.751 197.797 105.255 197.508C105.759 197.209 106.309 197.06 106.907 197.06C107.504 197.06 108.055 197.209 108.559 197.508C109.063 197.797 109.459 198.194 109.749 198.698C110.047 199.202 110.197 199.753 110.197 200.35V203.92ZM104.121 203.92C104.121 204.237 104.181 204.564 104.303 204.9L109.245 198.866C108.993 198.474 108.661 198.161 108.251 197.928C107.84 197.695 107.392 197.578 106.907 197.578C106.403 197.578 105.936 197.704 105.507 197.956C105.087 198.199 104.751 198.535 104.499 198.964C104.247 199.384 104.121 199.846 104.121 200.35V203.92ZM109.693 200.35C109.693 200.033 109.632 199.706 109.511 199.37L104.569 205.404C104.821 205.805 105.152 206.123 105.563 206.356C105.973 206.589 106.421 206.706 106.907 206.706C107.411 206.706 107.873 206.58 108.293 206.328C108.722 206.076 109.063 205.74 109.315 205.32C109.567 204.891 109.693 204.424 109.693 203.92V200.35ZM120.56 203.92C120.56 204.517 120.411 205.068 120.112 205.572C119.823 206.076 119.426 206.477 118.922 206.776C118.418 207.065 117.867 207.21 117.27 207.21C116.673 207.21 116.122 207.065 115.618 206.776C115.114 206.477 114.713 206.076 114.414 205.572C114.125 205.068 113.98 204.517 113.98 203.92V200.35C113.98 199.753 114.125 199.202 114.414 198.698C114.713 198.194 115.114 197.797 115.618 197.508C116.122 197.209 116.673 197.06 117.27 197.06C117.867 197.06 118.418 197.209 118.922 197.508C119.426 197.797 119.823 198.194 120.112 198.698C120.411 199.202 120.56 199.753 120.56 200.35V203.92ZM114.484 203.92C114.484 204.237 114.545 204.564 114.666 204.9L119.608 198.866C119.356 198.474 119.025 198.161 118.614 197.928C118.203 197.695 117.755 197.578 117.27 197.578C116.766 197.578 116.299 197.704 115.87 197.956C115.45 198.199 115.114 198.535 114.862 198.964C114.61 199.384 114.484 199.846 114.484 200.35V203.92ZM120.056 200.35C120.056 200.033 119.995 199.706 119.874 199.37L114.932 205.404C115.184 205.805 115.515 206.123 115.926 206.356C116.337 206.589 116.785 206.706 117.27 206.706C117.774 206.706 118.236 206.58 118.656 206.328C119.085 206.076 119.426 205.74 119.678 205.32C119.93 204.891 120.056 204.424 120.056 203.92V200.35ZM141.286 203.92C141.286 204.517 141.137 205.068 140.838 205.572C140.549 206.076 140.152 206.477 139.648 206.776C139.144 207.065 138.594 207.21 137.996 207.21C137.399 207.21 136.848 207.065 136.344 206.776C135.84 206.477 135.439 206.076 135.14 205.572C134.851 205.068 134.706 204.517 134.706 203.92V200.35C134.706 199.753 134.851 199.202 135.14 198.698C135.439 198.194 135.84 197.797 136.344 197.508C136.848 197.209 137.399 197.06 137.996 197.06C138.594 197.06 139.144 197.209 139.648 197.508C140.152 197.797 140.549 198.194 140.838 198.698C141.137 199.202 141.286 199.753 141.286 200.35V203.92ZM135.21 203.92C135.21 204.237 135.271 204.564 135.392 204.9L140.334 198.866C140.082 198.474 139.751 198.161 139.34 197.928C138.93 197.695 138.482 197.578 137.996 197.578C137.492 197.578 137.026 197.704 136.596 197.956C136.176 198.199 135.84 198.535 135.588 198.964C135.336 199.384 135.21 199.846 135.21 200.35V203.92ZM140.782 200.35C140.782 200.033 140.722 199.706 140.6 199.37L135.658 205.404C135.91 205.805 136.242 206.123 136.652 206.356C137.063 206.589 137.511 206.706 137.996 206.706C138.5 206.706 138.962 206.58 139.382 206.328C139.812 206.076 140.152 205.74 140.404 205.32C140.656 204.891 140.782 204.424 140.782 203.92V200.35ZM151.65 203.92C151.65 204.517 151.5 205.068 151.202 205.572C150.912 206.076 150.516 206.477 150.012 206.776C149.508 207.065 148.957 207.21 148.36 207.21C147.762 207.21 147.212 207.065 146.708 206.776C146.204 206.477 145.802 206.076 145.504 205.572C145.214 205.068 145.07 204.517 145.07 203.92V200.35C145.07 199.753 145.214 199.202 145.504 198.698C145.802 198.194 146.204 197.797 146.708 197.508C147.212 197.209 147.762 197.06 148.36 197.06C148.957 197.06 149.508 197.209 150.012 197.508C150.516 197.797 150.912 198.194 151.202 198.698C151.5 199.202 151.65 199.753 151.65 200.35V203.92ZM145.574 203.92C145.574 204.237 145.634 204.564 145.756 204.9L150.698 198.866C150.446 198.474 150.114 198.161 149.704 197.928C149.293 197.695 148.845 197.578 148.36 197.578C147.856 197.578 147.389 197.704 146.96 197.956C146.54 198.199 146.204 198.535 145.952 198.964C145.7 199.384 145.574 199.846 145.574 200.35V203.92ZM151.146 200.35C151.146 200.033 151.085 199.706 150.964 199.37L146.022 205.404C146.274 205.805 146.605 206.123 147.016 206.356C147.426 206.589 147.874 206.706 148.36 206.706C148.864 206.706 149.326 206.58 149.746 206.328C150.175 206.076 150.516 205.74 150.768 205.32C151.02 204.891 151.146 204.424 151.146 203.92V200.35ZM162.013 203.92C162.013 204.517 161.864 205.068 161.565 205.572C161.276 206.076 160.879 206.477 160.375 206.776C159.871 207.065 159.32 207.21 158.723 207.21C158.126 207.21 157.575 207.065 157.071 206.776C156.567 206.477 156.166 206.076 155.867 205.572C155.578 205.068 155.433 204.517 155.433 203.92V200.35C155.433 199.753 155.578 199.202 155.867 198.698C156.166 198.194 156.567 197.797 157.071 197.508C157.575 197.209 158.126 197.06 158.723 197.06C159.32 197.06 159.871 197.209 160.375 197.508C160.879 197.797 161.276 198.194 161.565 198.698C161.864 199.202 162.013 199.753 162.013 200.35V203.92ZM155.937 203.92C155.937 204.237 155.998 204.564 156.119 204.9L161.061 198.866C160.809 198.474 160.478 198.161 160.067 197.928C159.656 197.695 159.208 197.578 158.723 197.578C158.219 197.578 157.752 197.704 157.323 197.956C156.903 198.199 156.567 198.535 156.315 198.964C156.063 199.384 155.937 199.846 155.937 200.35V203.92ZM161.509 200.35C161.509 200.033 161.448 199.706 161.327 199.37L156.385 205.404C156.637 205.805 156.968 206.123 157.379 206.356C157.79 206.589 158.238 206.706 158.723 206.706C159.227 206.706 159.689 206.58 160.109 206.328C160.538 206.076 160.879 205.74 161.131 205.32C161.383 204.891 161.509 204.424 161.509 203.92V200.35ZM172.376 203.92C172.376 204.517 172.227 205.068 171.928 205.572C171.639 206.076 171.242 206.477 170.738 206.776C170.234 207.065 169.684 207.21 169.086 207.21C168.489 207.21 167.938 207.065 167.434 206.776C166.93 206.477 166.529 206.076 166.23 205.572C165.941 205.068 165.796 204.517 165.796 203.92V200.35C165.796 199.753 165.941 199.202 166.23 198.698C166.529 198.194 166.93 197.797 167.434 197.508C167.938 197.209 168.489 197.06 169.086 197.06C169.684 197.06 170.234 197.209 170.738 197.508C171.242 197.797 171.639 198.194 171.928 198.698C172.227 199.202 172.376 199.753 172.376 200.35V203.92ZM166.3 203.92C166.3 204.237 166.361 204.564 166.482 204.9L171.424 198.866C171.172 198.474 170.841 198.161 170.43 197.928C170.02 197.695 169.572 197.578 169.086 197.578C168.582 197.578 168.116 197.704 167.686 197.956C167.266 198.199 166.93 198.535 166.678 198.964C166.426 199.384 166.3 199.846 166.3 200.35V203.92ZM171.872 200.35C171.872 200.033 171.812 199.706 171.69 199.37L166.748 205.404C167 205.805 167.332 206.123 167.742 206.356C168.153 206.589 168.601 206.706 169.086 206.706C169.59 206.706 170.052 206.58 170.472 206.328C170.902 206.076 171.242 205.74 171.494 205.32C171.746 204.891 171.872 204.424 171.872 203.92V200.35ZM193.103 203.92C193.103 204.517 192.953 205.068 192.655 205.572C192.365 206.076 191.969 206.477 191.465 206.776C190.961 207.065 190.41 207.21 189.813 207.21C189.215 207.21 188.665 207.065 188.161 206.776C187.657 206.477 187.255 206.076 186.957 205.572C186.667 205.068 186.523 204.517 186.523 203.92V200.35C186.523 199.753 186.667 199.202 186.957 198.698C187.255 198.194 187.657 197.797 188.161 197.508C188.665 197.209 189.215 197.06 189.813 197.06C190.41 197.06 190.961 197.209 191.465 197.508C191.969 197.797 192.365 198.194 192.655 198.698C192.953 199.202 193.103 199.753 193.103 200.35V203.92ZM187.027 203.92C187.027 204.237 187.087 204.564 187.209 204.9L192.151 198.866C191.899 198.474 191.567 198.161 191.157 197.928C190.746 197.695 190.298 197.578 189.813 197.578C189.309 197.578 188.842 197.704 188.413 197.956C187.993 198.199 187.657 198.535 187.405 198.964C187.153 199.384 187.027 199.846 187.027 200.35V203.92ZM192.599 200.35C192.599 200.033 192.538 199.706 192.417 199.37L187.475 205.404C187.727 205.805 188.058 206.123 188.469 206.356C188.879 206.589 189.327 206.706 189.813 206.706C190.317 206.706 190.779 206.58 191.199 206.328C191.628 206.076 191.969 205.74 192.221 205.32C192.473 204.891 192.599 204.424 192.599 203.92V200.35ZM203.466 203.92C203.466 204.517 203.317 205.068 203.018 205.572C202.729 206.076 202.332 206.477 201.828 206.776C201.324 207.065 200.773 207.21 200.176 207.21C199.579 207.21 199.028 207.065 198.524 206.776C198.02 206.477 197.619 206.076 197.32 205.572C197.031 205.068 196.886 204.517 196.886 203.92V200.35C196.886 199.753 197.031 199.202 197.32 198.698C197.619 198.194 198.02 197.797 198.524 197.508C199.028 197.209 199.579 197.06 200.176 197.06C200.773 197.06 201.324 197.209 201.828 197.508C202.332 197.797 202.729 198.194 203.018 198.698C203.317 199.202 203.466 199.753 203.466 200.35V203.92ZM197.39 203.92C197.39 204.237 197.451 204.564 197.572 204.9L202.514 198.866C202.262 198.474 201.931 198.161 201.52 197.928C201.109 197.695 200.661 197.578 200.176 197.578C199.672 197.578 199.205 197.704 198.776 197.956C198.356 198.199 198.02 198.535 197.768 198.964C197.516 199.384 197.39 199.846 197.39 200.35V203.92ZM202.962 200.35C202.962 200.033 202.901 199.706 202.78 199.37L197.838 205.404C198.09 205.805 198.421 206.123 198.832 206.356C199.243 206.589 199.691 206.706 200.176 206.706C200.68 206.706 201.142 206.58 201.562 206.328C201.991 206.076 202.332 205.74 202.584 205.32C202.836 204.891 202.962 204.424 202.962 203.92V200.35ZM213.829 203.92C213.829 204.517 213.68 205.068 213.381 205.572C213.092 206.076 212.695 206.477 212.191 206.776C211.687 207.065 211.137 207.21 210.539 207.21C209.942 207.21 209.391 207.065 208.887 206.776C208.383 206.477 207.982 206.076 207.683 205.572C207.394 205.068 207.249 204.517 207.249 203.92V200.35C207.249 199.753 207.394 199.202 207.683 198.698C207.982 198.194 208.383 197.797 208.887 197.508C209.391 197.209 209.942 197.06 210.539 197.06C211.137 197.06 211.687 197.209 212.191 197.508C212.695 197.797 213.092 198.194 213.381 198.698C213.68 199.202 213.829 199.753 213.829 200.35V203.92ZM207.753 203.92C207.753 204.237 207.814 204.564 207.935 204.9L212.877 198.866C212.625 198.474 212.294 198.161 211.883 197.928C211.473 197.695 211.025 197.578 210.539 197.578C210.035 197.578 209.569 197.704 209.139 197.956C208.719 198.199 208.383 198.535 208.131 198.964C207.879 199.384 207.753 199.846 207.753 200.35V203.92ZM213.325 200.35C213.325 200.033 213.265 199.706 213.143 199.37L208.201 205.404C208.453 205.805 208.785 206.123 209.195 206.356C209.606 206.589 210.054 206.706 210.539 206.706C211.043 206.706 211.505 206.58 211.925 206.328C212.355 206.076 212.695 205.74 212.947 205.32C213.199 204.891 213.325 204.424 213.325 203.92V200.35ZM224.193 203.92C224.193 204.517 224.043 205.068 223.745 205.572C223.455 206.076 223.059 206.477 222.555 206.776C222.051 207.065 221.5 207.21 220.903 207.21C220.305 207.21 219.755 207.065 219.251 206.776C218.747 206.477 218.345 206.076 218.047 205.572C217.757 205.068 217.613 204.517 217.613 203.92V200.35C217.613 199.753 217.757 199.202 218.047 198.698C218.345 198.194 218.747 197.797 219.251 197.508C219.755 197.209 220.305 197.06 220.903 197.06C221.5 197.06 222.051 197.209 222.555 197.508C223.059 197.797 223.455 198.194 223.745 198.698C224.043 199.202 224.193 199.753 224.193 200.35V203.92ZM218.117 203.92C218.117 204.237 218.177 204.564 218.299 204.9L223.241 198.866C222.989 198.474 222.657 198.161 222.247 197.928C221.836 197.695 221.388 197.578 220.903 197.578C220.399 197.578 219.932 197.704 219.503 197.956C219.083 198.199 218.747 198.535 218.495 198.964C218.243 199.384 218.117 199.846 218.117 200.35V203.92ZM223.689 200.35C223.689 200.033 223.628 199.706 223.507 199.37L218.565 205.404C218.817 205.805 219.148 206.123 219.559 206.356C219.969 206.589 220.417 206.706 220.903 206.706C221.407 206.706 221.869 206.58 222.289 206.328C222.718 206.076 223.059 205.74 223.311 205.32C223.563 204.891 223.689 204.424 223.689 203.92V200.35ZM244.919 203.92C244.919 204.517 244.77 205.068 244.471 205.572C244.182 206.076 243.785 206.477 243.281 206.776C242.777 207.065 242.227 207.21 241.629 207.21C241.032 207.21 240.481 207.065 239.977 206.776C239.473 206.477 239.072 206.076 238.773 205.572C238.484 205.068 238.339 204.517 238.339 203.92V200.35C238.339 199.753 238.484 199.202 238.773 198.698C239.072 198.194 239.473 197.797 239.977 197.508C240.481 197.209 241.032 197.06 241.629 197.06C242.227 197.06 242.777 197.209 243.281 197.508C243.785 197.797 244.182 198.194 244.471 198.698C244.77 199.202 244.919 199.753 244.919 200.35V203.92ZM238.843 203.92C238.843 204.237 238.904 204.564 239.025 204.9L243.967 198.866C243.715 198.474 243.384 198.161 242.973 197.928C242.563 197.695 242.115 197.578 241.629 197.578C241.125 197.578 240.659 197.704 240.229 197.956C239.809 198.199 239.473 198.535 239.221 198.964C238.969 199.384 238.843 199.846 238.843 200.35V203.92ZM244.415 200.35C244.415 200.033 244.355 199.706 244.233 199.37L239.291 205.404C239.543 205.805 239.875 206.123 240.285 206.356C240.696 206.589 241.144 206.706 241.629 206.706C242.133 206.706 242.595 206.58 243.015 206.328C243.445 206.076 243.785 205.74 244.037 205.32C244.289 204.891 244.415 204.424 244.415 203.92V200.35ZM255.283 203.92C255.283 204.517 255.133 205.068 254.835 205.572C254.545 206.076 254.149 206.477 253.645 206.776C253.141 207.065 252.59 207.21 251.993 207.21C251.395 207.21 250.845 207.065 250.341 206.776C249.837 206.477 249.435 206.076 249.137 205.572C248.847 205.068 248.703 204.517 248.703 203.92V200.35C248.703 199.753 248.847 199.202 249.137 198.698C249.435 198.194 249.837 197.797 250.341 197.508C250.845 197.209 251.395 197.06 251.993 197.06C252.59 197.06 253.141 197.209 253.645 197.508C254.149 197.797 254.545 198.194 254.835 198.698C255.133 199.202 255.283 199.753 255.283 200.35V203.92ZM249.207 203.92C249.207 204.237 249.267 204.564 249.389 204.9L254.331 198.866C254.079 198.474 253.747 198.161 253.337 197.928C252.926 197.695 252.478 197.578 251.993 197.578C251.489 197.578 251.022 197.704 250.593 197.956C250.173 198.199 249.837 198.535 249.585 198.964C249.333 199.384 249.207 199.846 249.207 200.35V203.92ZM254.779 200.35C254.779 200.033 254.718 199.706 254.597 199.37L249.655 205.404C249.907 205.805 250.238 206.123 250.649 206.356C251.059 206.589 251.507 206.706 251.993 206.706C252.497 206.706 252.959 206.58 253.379 206.328C253.808 206.076 254.149 205.74 254.401 205.32C254.653 204.891 254.779 204.424 254.779 203.92V200.35ZM265.646 203.92C265.646 204.517 265.496 205.068 265.198 205.572C264.908 206.076 264.512 206.477 264.008 206.776C263.504 207.065 262.953 207.21 262.356 207.21C261.758 207.21 261.208 207.065 260.704 206.776C260.2 206.477 259.798 206.076 259.5 205.572C259.21 205.068 259.066 204.517 259.066 203.92V200.35C259.066 199.753 259.21 199.202 259.5 198.698C259.798 198.194 260.2 197.797 260.704 197.508C261.208 197.209 261.758 197.06 262.356 197.06C262.953 197.06 263.504 197.209 264.008 197.508C264.512 197.797 264.908 198.194 265.198 198.698C265.496 199.202 265.646 199.753 265.646 200.35V203.92ZM259.57 203.92C259.57 204.237 259.63 204.564 259.752 204.9L264.694 198.866C264.442 198.474 264.11 198.161 263.7 197.928C263.289 197.695 262.841 197.578 262.356 197.578C261.852 197.578 261.385 197.704 260.956 197.956C260.536 198.199 260.2 198.535 259.948 198.964C259.696 199.384 259.57 199.846 259.57 200.35V203.92ZM265.142 200.35C265.142 200.033 265.081 199.706 264.96 199.37L260.018 205.404C260.27 205.805 260.601 206.123 261.012 206.356C261.422 206.589 261.87 206.706 262.356 206.706C262.86 206.706 263.322 206.58 263.742 206.328C264.171 206.076 264.512 205.74 264.764 205.32C265.016 204.891 265.142 204.424 265.142 203.92V200.35ZM276.009 203.92C276.009 204.517 275.86 205.068 275.561 205.572C275.272 206.076 274.875 206.477 274.371 206.776C273.867 207.065 273.316 207.21 272.719 207.21C272.122 207.21 271.571 207.065 271.067 206.776C270.563 206.477 270.162 206.076 269.863 205.572C269.574 205.068 269.429 204.517 269.429 203.92V200.35C269.429 199.753 269.574 199.202 269.863 198.698C270.162 198.194 270.563 197.797 271.067 197.508C271.571 197.209 272.122 197.06 272.719 197.06C273.316 197.06 273.867 197.209 274.371 197.508C274.875 197.797 275.272 198.194 275.561 198.698C275.86 199.202 276.009 199.753 276.009 200.35V203.92ZM269.933 203.92C269.933 204.237 269.994 204.564 270.115 204.9L275.057 198.866C274.805 198.474 274.474 198.161 274.063 197.928C273.652 197.695 273.204 197.578 272.719 197.578C272.215 197.578 271.748 197.704 271.319 197.956C270.899 198.199 270.563 198.535 270.311 198.964C270.059 199.384 269.933 199.846 269.933 200.35V203.92ZM275.505 200.35C275.505 200.033 275.444 199.706 275.323 199.37L270.381 205.404C270.633 205.805 270.964 206.123 271.375 206.356C271.786 206.589 272.234 206.706 272.719 206.706C273.223 206.706 273.685 206.58 274.105 206.328C274.534 206.076 274.875 205.74 275.127 205.32C275.379 204.891 275.505 204.424 275.505 203.92V200.35Z" fill="#FCFCFC"/>
<path d="M191.5 106H277.5L259 138H172.5L191.5 106Z" fill="#EDA645"/>
</svg>
