<svg width="293" height="234" viewBox="0 0 293 234" fill="none" xmlns="http://www.w3.org/2000/svg">
<path d="M1.5 116.5L28.5 230.969L2.5 192L1.5 116.5Z" fill="#DB8816"/>
<path d="M32.9572 233.5C30.6383 233.5 28.6237 231.906 28.091 229.649L1.45123 116.782C0.710236 113.642 3.09186 110.633 6.31754 110.633L240.543 110.633C242.862 110.633 244.876 112.227 245.409 114.484L272.049 227.351C272.79 230.491 270.408 233.5 267.182 233.5L32.9572 233.5Z" fill="#FAC173"/>
<path d="M53.2895 211C50.9806 211 48.9719 209.419 48.4294 207.175L31.9925 139.175C31.2321 136.029 33.6158 133 36.8526 133L220.628 133C222.935 133 224.943 134.578 225.487 136.82L241.999 204.82C242.764 207.968 240.379 211 237.141 211L53.2895 211Z" fill="#FFFCF7"/>
<path d="M193.681 207L190.5 193H217.319L220.5 207H193.681Z" fill="black" fill-opacity="0.5"/>
<path d="M199.5 199.5C200.167 199.833 201.7 201.2 202.5 204C204.1 199.6 210.167 196.167 213 195" stroke="#FFFCF7"/>
<path d="M67.2279 187H215.772L215.09 184H66.5462L67.2279 187Z" fill="black" fill-opacity="0.5"/>
<path d="M64.5 164L71.147 171.656L68.4147 179H70.0042L72.2597 172.938L77.5224 179H79.5L72.853 171.344L75.5853 164H73.9958L71.7403 170.062L66.4776 164H64.5Z" fill="black" fill-opacity="0.5"/>
<path d="M111.67 155.762C114.871 139.864 100.683 147.564 93.938 163.214C91.6895 168.431 90.2439 195.507 104.282 170.666C108.714 166.94 117.58 161.724 117.58 170.666C117.58 179.609 113.64 178.367 111.67 176.628C113.147 169.673 119.058 157.252 130.879 163.214C142.7 169.176 149.596 160.73 151.566 155.762C150.335 158.991 150.827 167.685 162.648 176.628C174.47 185.571 170.529 171.411 167.081 163.214L151.566 176.628C168.559 174.641 203.136 169.176 205.5 163.214" stroke="black" stroke-opacity="0.5"/>
<path d="M275.324 0.939695C275.513 0.420717 276.087 0.153128 276.606 0.34202L291.641 5.81434C292.16 6.00323 292.428 6.57708 292.239 7.09606L229.991 178.12L213.865 198.896C213.269 199.663 212.039 199.216 212.076 198.244L213.077 171.964L275.324 0.939695Z" fill="#BFBFBF"/>
</svg>
