<svg width="548" height="522" viewBox="0 0 548 522" fill="none" xmlns="http://www.w3.org/2000/svg">
<path fill-rule="evenodd" clip-rule="evenodd" d="M183.325 521.545H86.896C86.896 521.545 86.896 531.088 86.896 203.707C86.896 165.687 180.349 155.573 273.801 155.566C367.253 155.559 460.706 164.469 460.706 203.707V521.545H364.277V277.031C363.697 264.21 337.154 264.422 324.396 265.071V521.545H223.206V265.042C210.447 264.393 183.905 264.181 183.325 277.002V521.545V521.545Z" fill="white"/>
<path fill-rule="evenodd" clip-rule="evenodd" d="M547.619 50.7798C547.475 20.7186 410.642 0.922065 273.81 0.914065C136.905 0.906065 0 20.7026 0 50.7798C0 50.7798 33.5663 145.322 86.9046 130.61C184.066 103.811 363.553 103.641 460.714 130.571C514.014 145.343 547.619 50.7798 547.619 50.7798V50.7798Z" fill="white"/>
</svg>
